<svg width="651" height="651" viewBox="0 0 651 651" fill="none" xmlns="http://www.w3.org/2000/svg">
<mask id="path-1-inside-1_194_16725" fill="white">
<path d="M399.239 30.5438C358.514 -10.1812 292.486 -10.1813 251.761 30.5437L30.5438 251.761C-10.1812 292.486 -10.1813 358.514 30.5437 399.239L251.761 620.456C292.486 661.181 358.514 661.181 399.239 620.456L620.456 399.239C661.181 358.514 661.181 292.486 620.456 251.761L399.239 30.5438Z"/>
</mask>
<path d="M236.193 369.889L233.905 370.127L233.906 370.139L236.193 369.889ZM235.312 347.007L237.613 347.02V347.007H235.312ZM237.117 377.106L238.393 379.02L239.558 378.243L239.403 376.852L237.117 377.106ZM236.666 373.599L238.945 373.287L238.944 373.275L238.942 373.264L236.666 373.599ZM235.216 377.472L235.318 375.174L235.311 375.174L235.216 377.472ZM207.238 377.448L207.333 375.15L207.285 375.148H207.238V377.448ZM206.534 377.458L206.797 379.743L206.808 379.742L206.819 379.741L206.534 377.458ZM207.237 377.448L207.14 379.747L207.188 379.749H207.237V377.448ZM204.993 375.918L202.694 375.998L202.695 376.01L204.993 375.918ZM204.662 369.159L206.959 369.03L206.958 369.02L206.958 369.009L204.662 369.159ZM204.421 364.609L206.719 364.502L206.719 364.499L204.421 364.609ZM204.662 369.157L202.365 369.286L202.366 369.296L202.366 369.307L204.662 369.157ZM204.411 362.74L202.111 362.708V362.708L204.411 362.74ZM204.421 361.572H206.722V358.349L203.673 359.397L204.421 361.572ZM202.541 363.264L204.52 364.436L204.52 364.436L202.541 363.264ZM202.221 363.773L200.342 362.446L200.338 362.452L202.221 363.773ZM184.883 377.766L184.114 375.598L184.1 375.603L184.883 377.766ZM170.626 379.922L170.689 377.623L170.683 377.623L170.626 379.922ZM150.252 375.39L151.269 373.327L151.265 373.324L150.252 375.39ZM133.75 353.652L136.02 353.278L136.019 353.273L133.75 353.652ZM132.782 351.539H130.482V352.69L131.402 353.38L132.782 351.539ZM132.782 343.619L131.715 341.581L130.482 342.227V343.619H132.782ZM133.74 341.733L131.471 341.355L131.463 341.405L131.457 341.455L133.74 341.733ZM133.794 341.33L131.526 340.943L131.524 340.957L131.522 340.972L133.794 341.33ZM133.74 341.732L136.009 342.111L136.018 342.06L136.024 342.01L133.74 341.732ZM148.624 320.648L149.768 322.643L149.772 322.641L148.624 320.648ZM169.086 314.047L169.421 316.323L169.423 316.323L169.086 314.047ZM200.329 313.915L199.993 316.191L199.997 316.192L200.329 313.915ZM202.397 311.935L204.686 311.702L204.685 311.7L202.397 311.935ZM193.464 298.91L192.491 300.994L192.5 300.998L192.509 301.002L193.464 298.91ZM185.103 296.71L185.277 294.416L185.271 294.415L185.103 296.71ZM151.748 301.462L150.865 299.338L150.85 299.344L150.835 299.351L151.748 301.462ZM146.995 303.662L145.878 305.673L146.881 306.231L147.93 305.764L146.995 303.662ZM149.15 302.66L150.138 304.737L150.145 304.734L150.151 304.731L149.15 302.66ZM146.483 302.346L144.198 302.081L144.198 302.082L146.483 302.346ZM146.503 302.161L148.794 302.362L148.795 302.361L146.503 302.161ZM146.511 301.99H148.812V301.959L148.811 301.928L146.511 301.99ZM146.498 301.489L148.797 301.427V301.427L146.498 301.489ZM146.027 282.496L143.727 282.541L143.727 282.543L146.027 282.496ZM148.006 279.478L148.844 281.62L148.844 281.62L148.006 279.478ZM148.052 279.46L147.224 277.314L147.213 277.318L148.052 279.46ZM174.982 273.475L174.788 271.183L174.786 271.183L174.982 273.475ZM195.224 273.431L195.481 271.145L195.477 271.145L195.224 273.431ZM217.447 280.252L218.625 278.276L218.625 278.276L217.447 280.252ZM234.608 305.907L232.344 306.313L232.346 306.323L232.348 306.333L234.608 305.907ZM175.114 355.676L175.661 353.441L175.649 353.438L175.114 355.676ZM166.577 348.239L168.771 347.546L168.77 347.542L166.577 348.239ZM202.485 333.541L200.187 333.437L200.187 333.444L202.485 333.541ZM201.165 332.089L201.067 334.388L201.069 334.388L201.165 332.089ZM180.923 332.045L181.208 334.328L181.22 334.326L181.232 334.325L180.923 332.045ZM188.8 331.517L188.685 333.815L188.693 333.815L188.702 333.816L188.8 331.517ZM171.066 335.478L172.374 337.37L172.381 337.365L172.387 337.361L171.066 335.478ZM302.199 299.736L301.677 297.495L301.67 297.497L302.199 299.736ZM326.886 302.42L325.952 304.522L325.966 304.528L325.98 304.534L326.886 302.42ZM282.617 321.694L284.896 322.009L284.897 322.005L282.617 321.694ZM284.29 337.448L286.39 336.51L286.389 336.508L284.29 337.448ZM306.16 353.641L305.79 355.912L305.801 355.913L306.16 353.641ZM330.45 350.561L331.282 352.706L331.284 352.705L330.45 350.561ZM332.739 349.637L333.331 347.414L332.62 347.224L331.931 347.483L332.739 349.637ZM331.536 350.12L330.655 347.995L330.646 347.999L331.536 350.12ZM333.298 350.341L335.597 350.258L335.597 350.257L333.298 350.341ZM333.311 350.517L335.61 350.451L335.606 350.32L335.588 350.191L333.311 350.517ZM333.519 358.091L335.819 358.038L335.819 358.029L333.519 358.091ZM333.519 358.105L331.22 358.158L331.22 358.165L333.519 358.105ZM332.079 376.039L332.731 378.245L332.739 378.243L332.746 378.241L332.079 376.039ZM333.971 373.443L336.27 373.376L336.27 373.364L333.971 373.443ZM315.313 379.384L315.574 381.669L315.579 381.669L315.313 379.384ZM283.498 376.832L282.832 379.034L282.835 379.034L283.498 376.832ZM254.675 356.722L252.786 358.035L252.789 358.039L254.675 356.722ZM246.182 333.179L243.895 333.427L243.896 333.438L246.182 333.179ZM248.734 308.229L246.557 307.485L246.554 307.494L248.734 308.229ZM277.601 278.261L276.722 276.135L276.722 276.135L277.601 278.261ZM310.912 273.289L311.073 270.994L311.071 270.994L310.912 273.289ZM330.89 277.689L331.783 275.569L331.783 275.569L330.89 277.689ZM333.072 281.096L330.784 280.861L330.783 280.862L333.072 281.096ZM333.047 281.342L335.335 281.578L335.335 281.576L333.047 281.342ZM330.494 304.136L329.437 306.179L331.538 307.267L332.566 305.136L330.494 304.136ZM331.117 301.083L328.82 300.951L328.82 300.954L331.117 301.083ZM378.239 293.795H375.939V296.304L378.438 296.086L378.239 293.795ZM379.52 292.83L377.424 291.881L377.422 291.885L379.52 292.83ZM381.408 375.25L383.708 375.295L383.708 375.272V375.25H381.408ZM382.42 322.046L384.682 322.462L384.685 322.448L382.42 322.046ZM387.612 308.932L385.769 307.556L385.764 307.562L387.612 308.932ZM405.038 302.816L404.551 305.064L404.559 305.066L405.038 302.816ZM414.059 311.617L411.897 312.403L411.898 312.405L414.059 311.617ZM415.741 374.807L413.441 374.862V374.862L415.741 374.807ZM415.731 376.039L418.025 376.209L418.026 376.203L415.731 376.039ZM417.315 377.491L417.506 379.784L417.525 379.782L417.544 379.78L417.315 377.491ZM418.195 377.482L418.119 379.781H418.119L418.195 377.482ZM450.979 376.215L453.276 376.1L453.275 376.076L453.273 376.051L450.979 376.215ZM449.747 377.491L449.862 375.194L449.804 375.191H449.747V377.491ZM450.969 374.983L453.269 375.038L453.269 375.037L450.969 374.983ZM450.969 374.979L448.669 374.924L448.669 374.926L450.969 374.979ZM450.988 361.436L453.289 361.439V361.436H450.988ZM451.595 324.29L453.873 324.611L453.874 324.603L451.595 324.29ZM450.979 335.599H448.678V335.607L450.979 335.599ZM455.467 311.485L453.459 310.363L453.455 310.37L453.451 310.377L455.467 311.485ZM464.752 303.388L464.079 301.188L464.073 301.19L464.752 303.388ZM484.29 313.905L486.528 313.372L486.526 313.363L484.29 313.905ZM520.496 357.08H518.196V357.082L520.496 357.08ZM520.11 307.876L517.812 307.989L517.813 307.996L517.813 308.004L520.11 307.876ZM520.506 322.09L522.806 322.095V322.09H520.506ZM517.954 294.631L515.739 295.253L515.742 295.263L517.954 294.631ZM495.643 274.037L496.078 271.778L496.069 271.776L495.643 274.037ZM477.293 273.509L476.952 271.234L476.95 271.234L477.293 273.509ZM453.883 285.126L455.526 286.736L455.531 286.73L453.883 285.126ZM449.516 290.489L451.365 291.857L451.365 291.857L449.516 290.489ZM448.162 292.299L446.765 294.126L448.594 295.524L449.991 293.695L448.162 292.299ZM447.057 290.693L449.157 289.753L449.152 289.741L447.057 290.693ZM429.637 275.181L428.88 277.353L428.883 277.354L429.637 275.181ZM405.434 274.037L404.971 271.783L404.969 271.784L405.434 274.037ZM379.603 292.651L377.576 291.564L377.56 291.594L377.545 291.624L379.603 292.651ZM194.971 331.803L195.082 329.505L195.079 329.505L194.971 331.803ZM194.993 331.804L194.883 334.102L194.889 334.102L194.993 331.804ZM331.527 350.124L332.403 352.251L332.41 352.248L332.417 352.245L331.527 350.124ZM450.992 358.203L453.292 358.206V358.206L450.992 358.203ZM450.988 361.426L448.688 361.424V361.426H450.988ZM379.56 292.741L381.648 293.707L381.649 293.706L379.56 292.741ZM194.953 331.802L194.84 334.1L194.845 334.1L194.953 331.802ZM330.49 304.134L331.548 302.091L331.533 302.084L331.519 302.076L330.49 304.134ZM331.155 300.476L328.865 300.256L328.863 300.278L328.862 300.299L331.155 300.476ZM331.157 300.46L328.867 300.239L328.867 300.241L331.157 300.46ZM447.056 290.69L444.957 291.63L444.962 291.642L447.056 290.69ZM236.666 373.597L234.387 373.909L234.388 373.921L234.39 373.932L236.666 373.597ZM330.487 304.132L331.516 302.075L331.516 302.075L330.487 304.132ZM234.901 377.46L234.96 375.16L234.958 375.16L234.901 377.46ZM149.156 302.657L148.168 300.58L148.157 300.585L148.146 300.59L149.156 302.657ZM149.154 302.658L150.155 304.729L150.164 304.725L149.154 302.658ZM194.937 331.801L195.05 329.504L195.047 329.503L194.937 331.801ZM195.011 331.805L195.122 329.507L195.115 329.507L195.011 331.805ZM235.211 377.472L235.109 379.77L235.116 379.77L235.211 377.472ZM331.52 350.127L332.401 352.252L332.401 352.252L331.52 350.127ZM331.524 350.125L330.648 347.998L330.643 348L331.524 350.125ZM333.52 358.113L331.22 358.173L331.22 358.183L331.221 358.193L333.52 358.113ZM333.52 358.116L335.819 358.054L335.819 358.046L335.819 358.037L333.52 358.116ZM331.127 300.904L328.831 300.769L328.83 300.772L331.127 300.904ZM518.162 377.492L518.154 379.793H518.162V377.492ZM518.163 377.492L518.17 375.192H518.163V377.492ZM520.244 377.204L521.888 378.813V378.812L520.244 377.204ZM520.509 375.26L522.809 375.243L522.809 375.23L520.509 375.26ZM520.509 375.246L518.209 375.263L518.209 375.276L520.509 375.246ZM520.496 357.06H522.797V357.058L520.496 357.06ZM238.481 369.651C237.701 362.163 237.569 354.605 237.613 347.02L233.012 346.994C232.968 354.635 233.099 362.39 233.905 370.127L238.481 369.651ZM239.403 376.852C239.27 375.658 239.106 374.458 238.945 373.287L234.387 373.911C234.549 375.092 234.705 376.234 234.83 377.36L239.403 376.852ZM235.114 379.77C235.693 379.796 237.059 379.909 238.393 379.02L235.841 375.192C235.84 375.192 235.844 375.19 235.85 375.187C235.857 375.183 235.864 375.18 235.871 375.178C235.885 375.173 235.886 375.175 235.862 375.178C235.835 375.181 235.784 375.186 235.691 375.186C235.592 375.186 235.485 375.181 235.318 375.174L235.114 379.77ZM207.59 379.758H234.74V375.158H207.59V379.758ZM207.142 379.747C207.252 379.751 207.417 379.758 207.59 379.758V375.158C207.528 375.158 207.458 375.155 207.333 375.15L207.142 379.747ZM206.819 379.741C206.813 379.741 206.83 379.739 206.885 379.739C206.946 379.739 207.015 379.741 207.14 379.747L207.333 375.15C207.13 375.141 206.704 375.118 206.248 375.175L206.819 379.741ZM207.237 379.749H207.238V375.148H207.237V379.749ZM202.695 376.01C202.721 376.659 202.834 377.788 203.638 378.685C204.581 379.738 205.86 379.851 206.797 379.743L206.27 375.173C206.17 375.184 206.243 375.16 206.413 375.206C206.617 375.261 206.863 375.39 207.064 375.615C207.246 375.818 207.3 375.998 207.309 376.028C207.315 376.052 207.299 376.001 207.292 375.826L202.695 376.01ZM202.365 369.288C202.492 371.542 202.616 373.764 202.694 375.998L207.292 375.838C207.212 373.547 207.085 371.276 206.959 369.03L202.365 369.288ZM202.123 364.716C202.195 366.249 202.28 367.775 202.365 369.286L206.959 369.028C206.874 367.514 206.789 366.01 206.719 364.502L202.123 364.716ZM202.366 369.307L202.367 369.309L206.958 369.009L206.957 369.007L202.366 369.307ZM202.111 362.708C202.101 363.365 202.091 364.036 202.124 364.718L206.719 364.499C206.695 363.984 206.701 363.457 206.711 362.773L202.111 362.708ZM202.121 361.572C202.121 361.972 202.116 362.342 202.111 362.708L206.711 362.773C206.716 362.41 206.722 362.009 206.722 361.572H202.121ZM204.52 364.436C204.723 364.093 204.793 363.993 204.865 363.918C204.898 363.884 204.963 363.819 205.169 363.748L203.673 359.397C201.742 360.061 200.983 361.38 200.561 362.092L204.52 364.436ZM204.101 365.099C204.277 364.849 204.424 364.597 204.52 364.436L200.561 362.092C200.449 362.281 200.394 362.372 200.342 362.446L204.101 365.099ZM185.653 379.934C193.667 377.089 199.475 371.694 204.104 365.093L200.338 362.452C196.079 368.524 190.973 373.163 184.114 375.598L185.653 379.934ZM170.563 382.222C175.641 382.36 180.731 381.715 185.666 379.929L184.1 375.603C179.794 377.161 175.292 377.748 170.689 377.623L170.563 382.222ZM149.234 377.453C156.048 380.813 163.312 382.04 170.568 382.222L170.683 377.623C163.858 377.452 157.304 376.303 151.269 373.327L149.234 377.453ZM131.48 354.025C133.282 364.981 139.471 372.665 149.239 377.455L151.265 373.324C142.726 369.137 137.562 362.653 136.02 353.278L131.48 354.025ZM131.402 353.38C131.379 353.363 131.352 353.336 131.332 353.306C131.314 353.281 131.316 353.275 131.329 353.311C131.344 353.351 131.367 353.423 131.394 353.548C131.422 353.679 131.446 353.822 131.481 354.03L136.019 353.273C135.912 352.632 135.712 350.861 134.162 349.699L131.402 353.38ZM130.482 343.619V351.539H135.082V343.619H130.482ZM131.457 341.455C131.445 341.549 131.436 341.622 131.427 341.693C131.417 341.761 131.409 341.814 131.401 341.857C131.384 341.948 131.374 341.965 131.383 341.944C131.394 341.916 131.428 341.842 131.502 341.756C131.579 341.666 131.66 341.609 131.715 341.581L133.849 345.656C135.837 344.615 135.958 342.552 136.024 342.011L131.457 341.455ZM131.522 340.972C131.494 341.15 131.472 341.326 131.457 341.455L136.024 342.01C136.041 341.867 136.053 341.773 136.066 341.689L131.522 340.972ZM131.471 341.354L131.471 341.355L136.009 342.111L136.009 342.111L131.471 341.354ZM147.479 318.653C138.892 323.58 133.238 330.914 131.526 340.943L136.062 341.717C137.519 333.176 142.249 326.958 149.768 322.643L147.479 318.653ZM168.751 311.772C161.406 312.853 154.146 314.81 147.475 318.655L149.772 322.641C155.774 319.182 162.42 317.354 169.421 316.323L168.751 311.772ZM200.665 311.64C189.994 310.064 179.338 310.202 168.748 311.772L169.423 316.323C179.604 314.813 189.805 314.687 199.993 316.191L200.665 311.64ZM200.109 312.169C200.135 312.426 200.152 312.625 200.162 312.785C200.171 312.948 200.169 313.03 200.168 313.06C200.165 313.096 200.166 313.004 200.219 312.848C200.279 312.672 200.408 312.413 200.661 312.174C200.914 311.937 201.178 311.826 201.351 311.777C201.505 311.734 201.593 311.739 201.554 311.739C201.52 311.739 201.436 311.737 201.273 311.719C201.113 311.703 200.916 311.676 200.661 311.639L199.997 316.192C200.504 316.266 201.081 316.344 201.594 316.34C202.072 316.335 203.027 316.266 203.814 315.525C204.607 314.778 204.731 313.824 204.76 313.335C204.791 312.813 204.739 312.226 204.686 311.702L200.109 312.169ZM192.509 301.002C197.246 303.166 199.563 306.871 200.109 312.171L204.685 311.7C203.999 305.031 200.86 299.758 194.42 296.817L192.509 301.002ZM184.93 299.003C187.552 299.202 190.098 299.877 192.491 300.994L194.437 296.825C191.55 295.478 188.464 294.657 185.277 294.416L184.93 299.003ZM152.631 303.586C162.913 299.313 173.757 298.187 184.936 299.004L185.271 294.415C173.568 293.56 161.969 294.723 150.865 299.338L152.631 303.586ZM147.93 305.764C148.684 305.429 149.426 305.076 150.138 304.737L148.161 300.583C147.441 300.926 146.751 301.253 146.061 301.56L147.93 305.764ZM144.198 302.082C144.181 302.23 144.079 302.898 144.253 303.6C144.472 304.485 145.043 305.209 145.878 305.673L148.113 301.652C148.183 301.691 148.319 301.783 148.455 301.955C148.594 302.133 148.676 302.325 148.718 302.493C148.756 302.645 148.753 302.75 148.753 302.759C148.752 302.766 148.752 302.761 148.755 302.734C148.758 302.704 148.761 302.671 148.768 302.609L144.198 302.082ZM144.211 301.96C144.209 301.983 144.206 302.014 144.198 302.081L148.768 302.61C148.775 302.552 148.786 302.459 148.794 302.362L144.211 301.96ZM144.211 301.99C144.211 301.971 144.212 301.959 144.212 301.955C144.212 301.951 144.212 301.952 144.211 301.961L148.795 302.361C148.803 302.265 148.812 302.136 148.812 301.99H144.211ZM144.198 301.552L144.212 302.052L148.811 301.928L148.797 301.427L144.198 301.552ZM143.727 282.543C143.856 288.898 144.027 295.209 144.198 301.552L148.797 301.427C148.626 295.082 148.456 288.786 148.327 282.45L143.727 282.543ZM147.168 277.336C146.718 277.511 146.213 277.706 145.801 277.918C145.36 278.146 144.779 278.513 144.343 279.167C143.911 279.816 143.792 280.492 143.748 280.992C143.706 281.467 143.717 282.021 143.727 282.541L148.327 282.451C148.322 282.171 148.318 281.953 148.319 281.768C148.32 281.582 148.325 281.468 148.331 281.396C148.345 281.242 148.352 281.447 148.173 281.717C147.989 281.992 147.788 282.07 147.91 282.007C147.969 281.977 148.066 281.932 148.231 281.864C148.396 281.795 148.591 281.719 148.844 281.62L147.168 277.336ZM147.213 277.318L147.168 277.336L148.844 281.62L148.89 281.602L147.213 277.318ZM174.786 271.183C165.368 271.991 156.129 273.878 147.224 277.314L148.879 281.606C157.312 278.353 166.114 276.544 175.179 275.767L174.786 271.183ZM195.477 271.145C188.491 270.374 181.593 270.605 174.788 271.183L175.177 275.767C181.837 275.202 188.404 274.993 194.972 275.718L195.477 271.145ZM218.625 278.276C211.378 273.956 203.499 272.046 195.481 271.145L194.968 275.717C202.615 276.577 209.786 278.363 216.269 282.228L218.625 278.276ZM236.873 305.501C234.79 293.887 229.082 284.513 218.625 278.276L216.268 282.228C225.437 287.696 230.466 295.836 232.344 306.313L236.873 305.501ZM237.613 315.104C237.613 311.968 237.48 308.723 236.869 305.481L232.348 306.333C232.881 309.163 233.012 312.078 233.012 315.104H237.613ZM237.613 347.007V315.104H233.012V347.007H237.613ZM175.649 353.438C172.183 352.61 169.791 350.776 168.771 347.546L164.384 348.932C166.004 354.063 169.949 356.806 174.579 357.913L175.649 353.438ZM200.187 333.444C199.946 339.125 197.462 345.092 193.22 349.131C189.056 353.096 183.141 355.272 175.661 353.441L174.568 357.91C183.633 360.128 191.14 357.464 196.393 352.463C201.567 347.536 204.496 340.411 204.783 333.639L200.187 333.444ZM201.069 334.388C201.377 334.401 200.916 334.459 200.494 333.969C200.295 333.738 200.223 333.513 200.199 333.407C200.18 333.318 200.193 333.309 200.187 333.437L204.783 333.646C204.812 333.013 204.78 331.897 203.981 330.968C203.152 330.005 202.009 329.822 201.261 329.791L201.069 334.388ZM181.232 334.325C183.823 333.974 186.277 333.694 188.685 333.815L188.915 329.22C186.042 329.076 183.215 329.413 180.614 329.766L181.232 334.325ZM172.387 337.361C174.911 335.59 177.887 334.743 181.208 334.328L180.638 329.763C176.918 330.228 173.117 331.229 169.745 333.594L172.387 337.361ZM168.77 347.542C167.591 343.834 169.037 339.677 172.374 337.37L169.758 333.586C164.822 336.999 162.571 343.227 164.385 348.936L168.77 347.542ZM302.722 301.976C310.663 300.124 318.424 301.176 325.952 304.522L327.82 300.318C319.506 296.623 310.722 295.386 301.677 297.495L302.722 301.976ZM284.897 322.005C286.271 311.942 292.92 304.296 302.729 301.974L301.67 297.497C289.916 300.28 281.957 309.532 280.338 321.383L284.897 322.005ZM286.389 336.508C284.385 332.028 284.181 327.182 284.896 322.009L280.339 321.379C279.558 327.031 279.706 332.834 282.19 338.387L286.389 336.508ZM306.53 351.371C297.194 349.849 290.256 345.167 286.39 336.51L282.189 338.385C286.773 348.65 295.147 354.177 305.79 355.912L306.53 351.371ZM329.619 348.416C322.072 351.342 314.39 352.612 306.519 351.369L305.801 355.913C314.651 357.311 323.164 355.853 331.282 352.706L329.619 348.416ZM331.931 347.483C331.507 347.642 331.064 347.826 330.655 347.995L332.417 352.245C332.842 352.069 333.21 351.917 333.546 351.791L331.931 347.483ZM335.597 350.257C335.596 350.218 335.612 349.493 335.213 348.798C334.739 347.97 333.972 347.585 333.331 347.414L332.146 351.859C332.044 351.832 331.553 351.664 331.221 351.086C331.08 350.839 331.03 350.619 331.011 350.501C330.996 350.406 330.996 350.333 330.999 350.425L335.597 350.257ZM335.588 350.191C335.595 350.244 335.598 350.28 335.598 350.288C335.599 350.292 335.599 350.293 335.598 350.288C335.598 350.282 335.598 350.274 335.597 350.258L330.999 350.423C331.001 350.462 331.005 350.644 331.033 350.842L335.588 350.191ZM335.819 358.029C335.751 355.507 335.683 352.982 335.61 350.451L331.011 350.583C331.084 353.109 331.152 355.63 331.22 358.152L335.819 358.029ZM335.819 358.052L335.819 358.038L331.219 358.143L331.22 358.158L335.819 358.052ZM332.746 378.241C333.66 377.964 334.713 377.495 335.444 376.493C336.18 375.484 336.298 374.335 336.27 373.376L331.671 373.511C331.679 373.766 331.66 373.886 331.652 373.92C331.648 373.939 331.661 373.872 331.728 373.781C331.793 373.692 331.849 373.663 331.822 373.678C331.783 373.702 331.666 373.761 331.411 373.838L332.746 378.241ZM315.579 381.669C321.363 380.996 327.083 379.917 332.731 378.245L331.426 373.834C326.073 375.418 320.616 376.451 315.047 377.099L315.579 381.669ZM282.835 379.034C293.559 382.261 304.527 382.932 315.574 381.669L315.052 377.098C304.537 378.3 294.206 377.651 284.16 374.629L282.835 379.034ZM252.789 358.039C260.263 368.743 270.635 375.347 282.832 379.034L284.163 374.63C272.773 371.187 263.343 365.118 256.561 355.405L252.789 358.039ZM243.896 333.438C244.899 342.284 247.603 350.584 252.786 358.035L256.563 355.408C251.89 348.69 249.401 341.148 248.467 332.92L243.896 333.438ZM246.554 307.494C243.71 315.935 242.938 324.59 243.895 333.427L248.469 332.932C247.577 324.695 248.302 316.716 250.914 308.963L246.554 307.494ZM276.722 276.135C262.226 282.126 251.721 292.363 246.557 307.485L250.911 308.972C255.604 295.228 265.077 285.926 278.48 280.387L276.722 276.135ZM311.071 270.994C299.297 270.182 287.755 271.576 276.722 276.135L278.479 280.387C288.745 276.146 299.557 274.812 310.754 275.584L311.071 270.994ZM331.783 275.569C325.101 272.758 318.147 271.49 311.073 270.994L310.752 275.584C317.495 276.056 323.919 277.252 329.998 279.81L331.783 275.569ZM335.36 281.332C335.415 280.797 335.48 280.202 335.474 279.692C335.469 279.14 335.387 278.392 334.925 277.664C334.481 276.961 333.858 276.557 333.389 276.302C332.929 276.051 332.354 275.81 331.783 275.569L329.998 279.809C330.64 280.08 330.975 280.226 331.189 280.342C331.394 280.454 331.211 280.397 331.038 280.124C330.849 279.826 330.872 279.591 330.874 279.739C330.875 279.813 330.87 279.932 330.854 280.131C330.838 280.329 330.814 280.56 330.784 280.861L335.36 281.332ZM335.335 281.576L335.36 281.331L330.783 280.862L330.758 281.107L335.335 281.576ZM332.566 305.136C333.3 303.615 333.361 302.151 333.413 301.212L328.82 300.954C328.764 301.956 328.708 302.545 328.423 303.136L332.566 305.136ZM378.438 296.086C379.308 296.011 380.107 295.701 380.736 295.094C381.288 294.562 381.546 293.933 381.617 293.775L377.422 291.885C377.369 292.003 377.366 292.005 377.373 291.993C377.389 291.966 377.442 291.88 377.544 291.782C377.651 291.678 377.774 291.599 377.892 291.55C378.002 291.503 378.064 291.501 378.04 291.503L378.438 296.086ZM375.939 277.953V293.795H380.54V277.953H375.939ZM375.819 277.789C376.124 277.789 376.361 277.79 376.559 277.795C376.656 277.798 376.735 277.801 376.8 277.805C376.865 277.809 376.909 277.813 376.937 277.817C376.965 277.82 376.968 277.822 376.952 277.818C376.936 277.814 376.891 277.804 376.828 277.779C376.763 277.755 376.676 277.715 376.578 277.653C376.478 277.59 376.376 277.509 376.281 277.411C376.186 277.312 376.111 277.21 376.054 277.112C375.998 277.016 375.963 276.933 375.942 276.874C375.922 276.816 375.913 276.778 375.911 276.767C375.909 276.757 375.911 276.765 375.915 276.798C375.918 276.831 375.923 276.879 375.926 276.948C375.93 277.017 375.933 277.099 375.935 277.199C375.939 277.404 375.939 277.644 375.939 277.953H380.54C380.54 277.403 380.543 276.796 380.488 276.296C380.435 275.813 380.288 274.938 379.592 274.216C378.884 273.482 378.002 273.312 377.5 273.25C376.989 273.187 376.376 273.188 375.819 273.188V277.789ZM348.668 277.789H375.819V273.188H348.668V277.789ZM348.46 277.909C348.46 277.604 348.461 277.367 348.466 277.17C348.469 277.074 348.472 276.995 348.476 276.931C348.48 276.866 348.484 276.823 348.488 276.796C348.491 276.768 348.493 276.767 348.489 276.784C348.485 276.802 348.473 276.848 348.448 276.912C348.423 276.979 348.382 277.067 348.318 277.165C348.253 277.266 348.172 277.367 348.073 277.461C347.974 277.554 347.872 277.627 347.776 277.683C347.682 277.738 347.601 277.771 347.544 277.79C347.489 277.809 347.453 277.817 347.445 277.819C347.437 277.82 347.448 277.818 347.483 277.814C347.561 277.805 347.688 277.798 347.899 277.793C348.108 277.789 348.353 277.789 348.668 277.789V273.188C348.106 273.188 347.493 273.185 346.99 273.24C346.507 273.292 345.632 273.435 344.907 274.122C344.162 274.829 343.987 275.714 343.923 276.224C343.858 276.738 343.86 277.353 343.86 277.909H348.46ZM348.46 375.247V277.909H343.86V375.247H348.46ZM348.492 375.235C348.35 375.235 348.222 375.235 348.105 375.234C347.987 375.233 347.885 375.232 347.793 375.229C347.702 375.227 347.628 375.224 347.566 375.22C347.505 375.217 347.463 375.213 347.437 375.209C347.424 375.208 347.417 375.207 347.415 375.206C347.412 375.206 347.415 375.206 347.424 375.208C347.432 375.21 347.447 375.213 347.466 375.219C347.486 375.225 347.512 375.233 347.543 375.244C347.604 375.267 347.689 375.303 347.784 375.361C347.832 375.39 347.882 375.424 347.932 375.463C347.982 375.502 348.032 375.544 348.079 375.591C348.127 375.638 348.171 375.687 348.211 375.737C348.252 375.787 348.287 375.837 348.317 375.886C348.379 375.984 348.419 376.071 348.444 376.137C348.468 376.202 348.48 376.249 348.484 376.268C348.487 376.279 348.488 376.284 348.488 376.283C348.487 376.283 348.487 376.277 348.485 376.267C348.484 376.256 348.482 376.241 348.48 376.221C348.479 376.2 348.477 376.176 348.475 376.147C348.471 376.089 348.468 376.018 348.466 375.929C348.464 375.841 348.462 375.741 348.461 375.626C348.461 375.511 348.46 375.386 348.46 375.247H343.86C343.86 375.762 343.859 376.344 343.92 376.836C343.981 377.324 344.148 378.179 344.857 378.874C345.557 379.562 346.408 379.719 346.888 379.777C347.38 379.836 347.965 379.836 348.492 379.836V375.235ZM379.075 375.235H348.492V379.836H379.075V375.235ZM379.108 375.204C379.105 375.346 379.102 375.472 379.1 375.589C379.097 375.706 379.094 375.808 379.09 375.899C379.086 375.99 379.082 376.063 379.078 376.124C379.073 376.186 379.069 376.227 379.066 376.252C379.062 376.279 379.061 376.28 379.065 376.264C379.068 376.248 379.079 376.205 379.102 376.144C379.126 376.081 379.164 375.996 379.223 375.9C379.253 375.852 379.287 375.802 379.327 375.752C379.367 375.702 379.41 375.652 379.457 375.605C379.505 375.558 379.554 375.514 379.605 375.475C379.655 375.435 379.706 375.4 379.754 375.37C379.852 375.31 379.938 375.272 380.003 375.248C380.066 375.224 380.111 375.213 380.129 375.21C380.146 375.206 380.146 375.207 380.121 375.21C380.097 375.213 380.057 375.217 379.996 375.22C379.936 375.224 379.863 375.227 379.772 375.229C379.681 375.232 379.579 375.233 379.462 375.234C379.345 375.235 379.217 375.235 379.075 375.235V379.836C379.602 379.836 380.186 379.836 380.676 379.777C381.158 379.718 382.01 379.558 382.708 378.861C383.402 378.168 383.565 377.321 383.627 376.853C383.69 376.376 383.698 375.8 383.708 375.295L379.108 375.204ZM380.157 321.63C379.425 325.61 379.107 329.579 379.107 333.575H383.708C383.708 329.826 384.006 326.138 384.682 322.462L380.157 321.63ZM385.764 307.562C382.57 311.869 381.025 316.741 380.155 321.643L384.685 322.448C385.486 317.934 386.846 313.828 389.46 310.302L385.764 307.562ZM405.525 300.567C398.962 299.147 390.828 300.777 385.769 307.556L389.456 310.308C393.197 305.294 399.321 303.932 404.551 305.064L405.525 300.567ZM416.221 310.83C414.484 306.055 411.333 301.804 405.517 300.566L404.559 305.066C408.248 305.851 410.465 308.465 411.897 312.403L416.221 310.83ZM418.031 323.278C418.031 319.221 417.721 314.944 416.22 310.828L411.898 312.405C413.125 315.77 413.431 319.413 413.431 323.278H418.031ZM418.031 374.191V323.278H413.431V374.191H418.031ZM418.041 374.752C418.036 374.543 418.031 374.365 418.031 374.191H413.431C413.431 374.428 413.436 374.661 413.441 374.862L418.041 374.752ZM418.026 376.203C418.064 375.665 418.05 375.145 418.041 374.752L413.441 374.862C413.451 375.291 413.457 375.592 413.437 375.875L418.026 376.203ZM417.124 375.199C416.992 375.21 416.978 375.197 417.042 375.209C417.115 375.223 417.324 375.278 417.553 375.465C417.797 375.665 417.931 375.91 417.989 376.096C418.038 376.253 418.017 376.315 418.025 376.209L413.437 375.869C413.367 376.82 413.534 378.119 414.636 379.023C415.621 379.83 416.806 379.842 417.506 379.784L417.124 375.199ZM418.272 375.182C418.004 375.173 417.557 375.155 417.086 375.202L417.544 379.78C417.66 379.769 417.8 379.77 418.119 379.781L418.272 375.182ZM418.635 375.191C418.533 375.191 418.425 375.188 418.272 375.182L418.119 379.781C418.259 379.785 418.444 379.792 418.635 379.792V375.191ZM448.681 376.33C448.688 376.469 448.628 376.051 449.04 375.616C449.478 375.155 449.944 375.198 449.862 375.194L449.632 379.789C450.429 379.829 451.533 379.673 452.378 378.783C453.197 377.919 453.313 376.841 453.276 376.1L448.681 376.33ZM448.669 374.928C448.66 375.321 448.646 375.841 448.684 376.379L453.273 376.051C453.253 375.768 453.258 375.467 453.269 375.038L448.669 374.928ZM448.678 374.367C448.678 374.539 448.674 374.716 448.669 374.924L453.269 375.034C453.273 374.834 453.279 374.603 453.279 374.367H448.678ZM448.669 374.926L448.669 374.93L453.269 375.037L453.269 375.033L448.669 374.926ZM448.688 361.434C448.683 365.741 448.678 370.051 448.678 374.367H453.279C453.279 370.054 453.284 365.747 453.289 361.439L448.688 361.434ZM449.317 323.968C448.766 327.875 448.678 331.791 448.678 335.599H453.279C453.279 331.838 453.368 328.186 453.873 324.611L449.317 323.968ZM453.451 310.377C451.063 314.723 449.952 319.343 449.316 323.977L453.874 324.603C454.47 320.26 455.471 316.255 457.483 312.592L453.451 310.377ZM464.073 301.19C459.071 302.737 455.76 306.24 453.459 310.363L457.476 312.606C459.399 309.16 461.896 306.679 465.432 305.585L464.073 301.19ZM486.526 313.363C485.181 307.814 482.378 303.791 478.26 301.681C474.186 299.594 469.256 299.604 464.079 301.188L465.425 305.587C469.885 304.223 473.493 304.409 476.162 305.776C478.788 307.121 480.935 309.83 482.055 314.447L486.526 313.363ZM487.559 322.266C487.559 319.279 487.232 316.327 486.528 313.372L482.052 314.438C482.669 317.027 482.958 319.62 482.958 322.266H487.559ZM486.314 375.191C486.34 375.191 486.841 375.212 487.256 375.711C487.598 376.121 487.559 376.485 487.559 376.347H482.958C482.958 376.913 483.05 377.85 483.722 378.656C484.467 379.55 485.496 379.792 486.314 379.792V375.191ZM518.196 357.082C518.201 362.915 518.206 368.749 518.206 374.587H522.806C522.806 368.746 522.801 362.911 522.797 357.078L518.196 357.082ZM517.813 308.004C518.075 312.714 518.206 317.38 518.206 322.09H522.806C522.806 317.294 522.673 312.543 522.407 307.749L517.813 308.004ZM515.742 295.263C516.923 299.396 517.6 303.666 517.812 307.989L522.407 307.763C522.179 303.11 521.449 298.49 520.165 293.999L515.742 295.263ZM495.209 276.296C500.689 277.35 505.051 279.473 508.405 282.574C511.76 285.676 514.227 289.868 515.739 295.253L520.168 294.009C518.468 287.952 515.61 282.97 511.528 279.196C507.445 275.421 502.259 272.967 496.078 271.778L495.209 276.296ZM477.635 275.784C483.495 274.904 489.348 275.191 495.217 276.297L496.069 271.776C489.793 270.594 483.413 270.265 476.952 271.234L477.635 275.784ZM455.531 286.73C461.602 280.495 469.04 277.083 477.637 275.783L476.95 271.234C467.505 272.662 459.102 276.467 452.235 283.521L455.531 286.73ZM451.365 291.857C452.75 289.987 454.032 288.26 455.526 286.736L452.24 283.516C450.487 285.305 449.021 287.292 447.667 289.12L451.365 291.857ZM449.991 293.695C450.459 293.081 450.918 292.462 451.365 291.857L447.667 289.12C447.217 289.729 446.778 290.321 446.334 290.902L449.991 293.695ZM444.958 291.633C445.195 292.162 445.655 293.277 446.765 294.126L449.56 290.471C449.495 290.422 449.432 290.367 449.157 289.753L444.958 291.633ZM428.883 277.354C436.071 279.846 441.362 284.414 444.785 291.259L448.9 289.202C444.93 281.261 438.691 275.884 430.39 273.007L428.883 277.354ZM405.897 276.29C413.728 274.681 421.391 274.746 428.88 277.353L430.393 273.008C421.953 270.071 413.422 270.048 404.971 271.783L405.897 276.29ZM381.631 293.737C386.854 283.99 395.163 278.504 405.899 276.29L404.969 271.784C393.087 274.234 383.53 280.453 377.576 291.564L381.631 293.737ZM194.861 334.1L194.883 334.102L195.104 329.506L195.082 329.505L194.861 334.1ZM379.107 333.575V375.25H383.708V333.575H379.107ZM449.747 375.191H418.635V379.792H449.747V375.191ZM487.559 376.347V322.266H482.958V376.347H487.559ZM517.69 375.191H486.314V379.792H517.69V375.191ZM330.646 347.999L330.637 348.003L332.417 352.245L332.426 352.241L330.646 347.999ZM448.692 358.201L448.688 361.424L453.289 361.429L453.292 358.206L448.692 358.201ZM448.688 361.426V361.436H453.289V361.426H448.688ZM381.615 293.779C381.633 293.739 381.64 293.724 381.648 293.707L377.472 291.775C377.454 291.814 377.433 291.863 377.424 291.881L381.615 293.779ZM381.649 293.706C381.657 293.688 381.661 293.68 381.662 293.678L377.545 291.624C377.517 291.68 377.492 291.733 377.472 291.776L381.649 293.706ZM448.678 335.607C448.704 343.145 448.7 350.67 448.692 358.201L453.292 358.206C453.3 350.674 453.305 343.141 453.279 335.591L448.678 335.607ZM194.845 334.1L194.864 334.101L195.079 329.505L195.06 329.504L194.845 334.1ZM518.196 357.07V357.08H522.797V357.07H518.196ZM329.432 306.177L329.437 306.179L331.552 302.093L331.548 302.091L329.432 306.177ZM333.445 300.695L333.447 300.68L328.867 300.241L328.865 300.256L333.445 300.695ZM333.446 300.681C334.062 294.307 334.677 287.942 335.335 281.578L330.759 281.105C330.098 287.487 329.482 293.868 328.867 300.239L333.446 300.681ZM444.785 291.259C444.834 291.358 444.883 291.467 444.957 291.63L449.156 289.75C449.09 289.603 449.001 289.403 448.9 289.202L444.785 291.259ZM444.962 291.642L444.963 291.645L449.152 289.741L449.15 289.738L444.962 291.642ZM238.942 373.264L238.942 373.263L234.39 373.932L234.39 373.933L238.942 373.264ZM238.945 373.285C238.776 372.048 238.61 370.84 238.479 369.64L233.906 370.139C234.045 371.413 234.219 372.683 234.387 373.909L238.945 373.285ZM325.98 304.534C327.137 305.03 328.22 305.571 329.458 306.19L331.516 302.075C330.295 301.465 329.094 300.863 327.792 300.306L325.98 304.534ZM329.458 306.19L329.459 306.19L331.516 302.075L331.516 302.075L329.458 306.19ZM329.459 306.19L329.461 306.191L331.519 302.076L331.516 302.075L329.459 306.19ZM234.958 375.16C234.89 375.159 234.817 375.158 234.74 375.158V379.758C234.771 379.758 234.805 379.759 234.845 379.76L234.958 375.16ZM150.835 299.351C149.908 299.752 149.014 300.177 148.168 300.58L150.144 304.734C151.002 304.326 151.822 303.936 152.661 303.574L150.835 299.351ZM148.146 300.59L148.143 300.591L150.164 304.725L150.166 304.724L148.146 300.59ZM148.152 300.587L148.148 300.589L150.151 304.731L150.155 304.729L148.152 300.587ZM188.702 333.816C190.747 333.903 192.783 334.001 194.826 334.099L195.047 329.503C193.006 329.405 190.958 329.307 188.897 329.219L188.702 333.816ZM194.824 334.099L194.84 334.1L195.066 329.504L195.05 329.504L194.824 334.099ZM194.889 334.102L194.907 334.103L195.115 329.507L195.098 329.506L194.889 334.102ZM194.9 334.102C196.947 334.201 199.001 334.3 201.067 334.388L201.263 329.791C199.212 329.704 197.17 329.606 195.122 329.507L194.9 334.102ZM234.843 379.76C234.92 379.762 235.002 379.765 235.109 379.77L235.313 375.174C235.213 375.169 235.088 375.164 234.96 375.16L234.843 379.76ZM235.116 379.77L235.121 379.77L235.311 375.174L235.305 375.173L235.116 379.77ZM331.284 352.705C331.671 352.554 332.053 352.396 332.401 352.252L330.639 348.002C330.285 348.149 329.948 348.288 329.616 348.417L331.284 352.705ZM332.401 352.252L332.405 352.25L330.643 348L330.639 348.002L332.401 352.252ZM332.4 352.252L332.403 352.251L330.651 347.997L330.648 347.998L332.4 352.252ZM331.22 358.165L331.22 358.173L335.819 358.054L335.819 358.045L331.22 358.165ZM331.221 358.193L331.221 358.195L335.819 358.037L335.819 358.034L331.221 358.193ZM331.22 358.178C331.357 363.283 331.495 368.392 331.672 373.522L336.27 373.364C336.094 368.254 335.957 363.163 335.819 358.054L331.22 358.178ZM333.413 301.215L333.424 301.036L328.83 300.772L328.82 300.951L333.413 301.215ZM333.423 301.039C333.431 300.9 333.44 300.771 333.449 300.652L328.862 300.299C328.849 300.459 328.839 300.619 328.831 300.769L333.423 301.039ZM517.69 379.792C517.853 379.792 518.007 379.792 518.154 379.793L518.17 375.192C518.022 375.191 517.861 375.191 517.69 375.191V379.792ZM518.162 379.793H518.163V375.192H518.162V379.793ZM518.155 379.793C518.7 379.794 519.301 379.8 519.791 379.747C520.258 379.697 521.163 379.553 521.888 378.813L518.599 375.595C518.818 375.372 519.046 375.26 519.189 375.208C519.312 375.164 519.372 375.165 519.301 375.173C519.235 375.18 519.119 375.187 518.916 375.19C518.715 375.194 518.478 375.193 518.17 375.192L518.155 379.793ZM521.888 378.812C522.586 378.099 522.724 377.233 522.771 376.777C522.821 376.306 522.813 375.737 522.809 375.243L518.209 375.277C518.211 375.559 518.212 375.774 518.21 375.957C518.208 376.142 518.201 376.244 518.196 376.299C518.189 376.358 518.19 376.295 518.233 376.172C518.283 376.031 518.389 375.81 518.599 375.595L521.888 378.812ZM522.809 375.23L522.809 375.216L518.209 375.276L518.209 375.29L522.809 375.23ZM522.809 375.229C522.808 375.028 522.806 374.816 522.806 374.587H518.206C518.206 374.835 518.207 375.062 518.209 375.263L522.809 375.229ZM522.797 357.07V357.065H518.196V357.07H522.797ZM522.797 357.065V357.06H518.196V357.065H522.797ZM522.797 357.058C522.787 345.403 522.777 333.759 522.806 322.095L518.206 322.084C518.176 333.756 518.186 345.408 518.196 357.062L522.797 357.058ZM251.761 30.5437L255.014 33.7969V33.7969L251.761 30.5437ZM399.239 30.5438L402.492 27.2906V27.2906L399.239 30.5438ZM30.5438 251.761L27.2906 248.508V248.508L30.5438 251.761ZM30.5437 399.239L27.2905 402.492V402.492L30.5437 399.239ZM251.761 620.456L255.014 617.203V617.203L251.761 620.456ZM399.239 620.456L395.986 617.203V617.203L399.239 620.456ZM620.456 399.239L617.203 395.986V395.986L620.456 399.239ZM620.456 251.761L617.203 255.014V255.014L620.456 251.761ZM255.014 33.7969C293.943 -5.13139 357.058 -5.13133 395.986 33.7969L402.492 27.2906C359.971 -15.2311 291.029 -15.2312 248.508 27.2905L255.014 33.7969ZM33.7969 255.014L255.014 33.7969L248.508 27.2905L27.2906 248.508L33.7969 255.014ZM33.7969 395.986C-5.13139 357.057 -5.13133 293.942 33.7969 255.014L27.2906 248.508C-15.2311 291.029 -15.2312 359.971 27.2905 402.492L33.7969 395.986ZM255.014 617.203L33.7969 395.986L27.2905 402.492L248.508 623.709L255.014 617.203ZM395.986 617.203C357.058 656.131 293.942 656.131 255.014 617.203L248.508 623.709C291.029 666.231 359.971 666.231 402.492 623.709L395.986 617.203ZM617.203 395.986L395.986 617.203L402.492 623.709L623.709 402.492L617.203 395.986ZM617.203 255.014C656.131 293.942 656.131 357.058 617.203 395.986L623.709 402.492C666.231 359.971 666.231 291.029 623.709 248.508L617.203 255.014ZM395.986 33.7969L617.203 255.014L623.709 248.508L402.492 27.2906L395.986 33.7969Z" fill="url(#paint0_linear_194_16725)" mask="url(#path-1-inside-1_194_16725)"/>
<mask id="path-3-inside-2_194_16725" fill="white">
<path d="M378.239 293.795C379.12 293.718 379.334 293.242 379.52 292.83L379.56 292.741C379.574 292.71 379.589 292.68 379.603 292.651C385.192 282.222 394.125 276.369 405.434 274.037C413.575 272.365 421.672 272.409 429.637 275.181C437.381 277.865 443.146 282.838 446.842 290.23C446.917 290.381 446.987 290.535 447.056 290.69L447.057 290.693C447.313 291.265 447.575 291.849 448.162 292.299C448.619 291.701 449.067 291.095 449.516 290.489C450.885 288.639 452.259 286.783 453.883 285.126C460.352 278.481 468.273 274.873 477.293 273.509C483.454 272.585 489.571 272.893 495.643 274.037C507.305 276.281 514.741 283.19 517.954 294.631C519.186 298.943 519.89 303.388 520.11 307.876C520.374 312.629 520.506 317.337 520.506 322.09C520.477 333.752 520.486 345.395 520.496 357.045V357.05V357.055V357.06V357.065V357.07V357.08C520.501 362.913 520.506 368.747 520.506 374.587C520.506 374.827 520.508 375.048 520.509 375.25L520.509 375.26C520.517 376.36 520.521 376.92 520.244 377.204C519.956 377.498 519.365 377.496 518.162 377.492C518.014 377.492 517.857 377.491 517.69 377.491H486.314C485.522 377.491 485.258 377.051 485.258 376.347V322.266C485.258 319.449 484.95 316.677 484.29 313.905C481.826 303.74 474.389 300.439 464.752 303.388C460.484 304.708 457.579 307.7 455.467 311.485C453.267 315.489 452.211 319.801 451.595 324.29C451.067 328.03 450.979 331.815 450.979 335.599C451.004 343.143 451 350.672 450.992 358.203L450.988 361.426V361.436C450.984 365.744 450.979 370.053 450.979 374.367C450.979 374.572 450.974 374.778 450.969 374.983C450.959 375.394 450.949 375.804 450.979 376.215C451.023 377.095 450.627 377.535 449.747 377.491H418.635C418.489 377.491 418.342 377.486 418.195 377.482C417.902 377.472 417.609 377.462 417.315 377.491C416.259 377.579 415.643 377.227 415.731 376.039C415.76 375.628 415.751 375.218 415.741 374.807C415.736 374.602 415.731 374.396 415.731 374.191V323.278C415.731 319.317 415.423 315.357 414.059 311.617C412.475 307.26 409.791 303.828 405.038 302.816C399.141 301.54 392.013 303.036 387.612 308.932C384.708 312.849 383.256 317.337 382.42 322.046C381.716 325.874 381.408 329.702 381.408 333.575V375.25C381.364 377.491 381.363 377.535 379.075 377.535H348.492C346.204 377.535 346.16 377.491 346.16 375.247V277.909C346.16 275.489 346.204 275.489 348.668 275.489H375.819C378.239 275.489 378.239 275.533 378.239 277.953V293.795Z"/>
<path d="M302.199 299.736C310.692 297.755 318.965 298.9 326.886 302.42C328.116 302.947 329.258 303.518 330.487 304.133L330.49 304.134L330.494 304.136C331.004 303.08 331.062 302.054 331.117 301.083L331.127 300.904C331.135 300.76 331.145 300.615 331.155 300.476L331.157 300.46C331.772 294.087 332.387 287.715 333.047 281.342L333.072 281.096C333.314 278.744 333.317 278.711 330.89 277.689C324.51 275.005 317.821 273.773 310.912 273.289C299.427 272.497 288.25 273.861 277.601 278.261C263.652 284.026 253.663 293.795 248.734 308.229C246.006 316.325 245.258 324.642 246.182 333.179C247.15 341.716 249.746 349.637 254.675 356.722C261.803 366.931 271.704 373.267 283.498 376.832C293.883 379.956 304.532 380.616 315.313 379.384C320.989 378.724 326.578 377.668 332.079 376.039C333.531 375.599 334.015 374.939 333.971 373.443C333.794 368.322 333.657 363.221 333.52 358.113L333.519 358.105L333.519 358.091C333.451 355.569 333.383 353.045 333.311 350.517C333.303 350.46 333.3 350.401 333.298 350.341C333.288 350.071 333.278 349.781 332.739 349.637C332.359 349.779 331.953 349.947 331.536 350.12L331.527 350.124L331.524 350.125L331.52 350.127C331.169 350.272 330.81 350.421 330.45 350.561C322.618 353.597 314.521 354.961 306.16 353.641C296.171 352.013 288.514 346.908 284.29 337.448C282.045 332.431 281.869 327.106 282.617 321.694C284.114 310.737 291.418 302.288 302.199 299.736Z"/>
<path fill-rule="evenodd" clip-rule="evenodd" d="M236.193 369.889C235.4 362.276 235.268 354.62 235.312 347.007V315.104C235.312 312.023 235.18 308.943 234.608 305.907C232.628 294.861 227.26 286.105 217.447 280.252C210.582 276.16 203.057 274.311 195.224 273.431C188.448 272.683 181.715 272.903 174.982 273.475C165.741 274.267 156.72 276.116 148.052 279.46L148.006 279.478C146.027 280.252 145.984 280.269 146.027 282.496C146.156 288.842 146.326 295.146 146.498 301.489L146.511 301.99C146.511 302.046 146.508 302.103 146.503 302.161C146.498 302.221 146.49 302.283 146.483 302.346C146.43 302.805 146.371 303.316 146.995 303.662C147.717 303.341 148.433 303.001 149.15 302.66L149.154 302.658C150.007 302.252 150.864 301.844 151.748 301.462C162.441 297.018 173.662 295.874 185.103 296.71C188.008 296.93 190.824 297.678 193.464 298.91C199.053 301.462 201.781 305.951 202.397 311.935C202.617 314.091 202.441 314.224 200.329 313.915C189.9 312.375 179.471 312.507 169.086 314.047C161.913 315.104 154.96 316.996 148.624 320.648C140.571 325.269 135.378 332.045 133.794 341.33C133.773 341.462 133.757 341.597 133.74 341.733C133.652 342.459 133.56 343.211 132.782 343.619V351.539C133.486 352.067 133.618 352.859 133.75 353.652C135.422 363.817 141.099 370.901 150.252 375.39C156.676 378.558 163.585 379.746 170.626 379.922C175.466 380.054 180.263 379.438 184.883 377.766C192.32 375.126 197.777 370.109 202.221 363.773C202.335 363.611 202.437 363.439 202.541 363.264C202.917 362.629 203.317 361.952 204.421 361.572C204.421 361.99 204.416 362.376 204.411 362.74C204.401 363.411 204.393 364.01 204.421 364.609C204.492 366.13 204.577 367.646 204.662 369.159C204.788 371.409 204.914 373.655 204.993 375.918C205.037 377.018 205.389 377.59 206.534 377.458C206.768 377.429 207.003 377.438 207.238 377.448C207.355 377.453 207.472 377.458 207.59 377.458H234.74C234.794 377.458 234.848 377.459 234.901 377.46C235.004 377.463 235.107 377.467 235.211 377.472L235.216 377.472C235.849 377.5 236.483 377.528 237.117 377.106C236.988 375.946 236.827 374.775 236.666 373.599C236.497 372.367 236.328 371.127 236.193 369.889ZM166.577 348.239C167.898 352.419 171.066 354.708 175.114 355.676C191.66 359.724 201.957 345.995 202.485 333.541C202.529 332.573 202.221 332.133 201.165 332.089C199.106 332.002 197.059 331.903 195.011 331.805L194.993 331.804L194.971 331.803L194.953 331.802L194.937 331.801C192.895 331.703 190.853 331.605 188.8 331.517C186.159 331.385 183.519 331.693 180.923 332.045C177.403 332.485 174.014 333.409 171.066 335.478C166.929 338.338 165.081 343.53 166.577 348.239Z"/>
</mask>
<path d="M378.239 293.795C379.12 293.718 379.334 293.242 379.52 292.83L379.56 292.741C379.574 292.71 379.589 292.68 379.603 292.651C385.192 282.222 394.125 276.369 405.434 274.037C413.575 272.365 421.672 272.409 429.637 275.181C437.381 277.865 443.146 282.838 446.842 290.23C446.917 290.381 446.987 290.535 447.056 290.69L447.057 290.693C447.313 291.265 447.575 291.849 448.162 292.299C448.619 291.701 449.067 291.095 449.516 290.489C450.885 288.639 452.259 286.783 453.883 285.126C460.352 278.481 468.273 274.873 477.293 273.509C483.454 272.585 489.571 272.893 495.643 274.037C507.305 276.281 514.741 283.19 517.954 294.631C519.186 298.943 519.89 303.388 520.11 307.876C520.374 312.629 520.506 317.337 520.506 322.09C520.477 333.752 520.486 345.395 520.496 357.045V357.05V357.055V357.06V357.065V357.07V357.08C520.501 362.913 520.506 368.747 520.506 374.587C520.506 374.827 520.508 375.048 520.509 375.25L520.509 375.26C520.517 376.36 520.521 376.92 520.244 377.204C519.956 377.498 519.365 377.496 518.162 377.492C518.014 377.492 517.857 377.491 517.69 377.491H486.314C485.522 377.491 485.258 377.051 485.258 376.347V322.266C485.258 319.449 484.95 316.677 484.29 313.905C481.826 303.74 474.389 300.439 464.752 303.388C460.484 304.708 457.579 307.7 455.467 311.485C453.267 315.489 452.211 319.801 451.595 324.29C451.067 328.03 450.979 331.815 450.979 335.599C451.004 343.143 451 350.672 450.992 358.203L450.988 361.426V361.436C450.984 365.744 450.979 370.053 450.979 374.367C450.979 374.572 450.974 374.778 450.969 374.983C450.959 375.394 450.949 375.804 450.979 376.215C451.023 377.095 450.627 377.535 449.747 377.491H418.635C418.489 377.491 418.342 377.486 418.195 377.482C417.902 377.472 417.609 377.462 417.315 377.491C416.259 377.579 415.643 377.227 415.731 376.039C415.76 375.628 415.751 375.218 415.741 374.807C415.736 374.602 415.731 374.396 415.731 374.191V323.278C415.731 319.317 415.423 315.357 414.059 311.617C412.475 307.26 409.791 303.828 405.038 302.816C399.141 301.54 392.013 303.036 387.612 308.932C384.708 312.849 383.256 317.337 382.42 322.046C381.716 325.874 381.408 329.702 381.408 333.575V375.25C381.364 377.491 381.363 377.535 379.075 377.535H348.492C346.204 377.535 346.16 377.491 346.16 375.247V277.909C346.16 275.489 346.204 275.489 348.668 275.489H375.819C378.239 275.489 378.239 275.533 378.239 277.953V293.795Z" fill="#311C23"/>
<path d="M302.199 299.736C310.692 297.755 318.965 298.9 326.886 302.42C328.116 302.947 329.258 303.518 330.487 304.133L330.49 304.134L330.494 304.136C331.004 303.08 331.062 302.054 331.117 301.083L331.127 300.904C331.135 300.76 331.145 300.615 331.155 300.476L331.157 300.46C331.772 294.087 332.387 287.715 333.047 281.342L333.072 281.096C333.314 278.744 333.317 278.711 330.89 277.689C324.51 275.005 317.821 273.773 310.912 273.289C299.427 272.497 288.25 273.861 277.601 278.261C263.652 284.026 253.663 293.795 248.734 308.229C246.006 316.325 245.258 324.642 246.182 333.179C247.15 341.716 249.746 349.637 254.675 356.722C261.803 366.931 271.704 373.267 283.498 376.832C293.883 379.956 304.532 380.616 315.313 379.384C320.989 378.724 326.578 377.668 332.079 376.039C333.531 375.599 334.015 374.939 333.971 373.443C333.794 368.322 333.657 363.221 333.52 358.113L333.519 358.105L333.519 358.091C333.451 355.569 333.383 353.045 333.311 350.517C333.303 350.46 333.3 350.401 333.298 350.341C333.288 350.071 333.278 349.781 332.739 349.637C332.359 349.779 331.953 349.947 331.536 350.12L331.527 350.124L331.524 350.125L331.52 350.127C331.169 350.272 330.81 350.421 330.45 350.561C322.618 353.597 314.521 354.961 306.16 353.641C296.171 352.013 288.514 346.908 284.29 337.448C282.045 332.431 281.869 327.106 282.617 321.694C284.114 310.737 291.418 302.288 302.199 299.736Z" fill="#311C23"/>
<path fill-rule="evenodd" clip-rule="evenodd" d="M236.193 369.889C235.4 362.276 235.268 354.62 235.312 347.007V315.104C235.312 312.023 235.18 308.943 234.608 305.907C232.628 294.861 227.26 286.105 217.447 280.252C210.582 276.16 203.057 274.311 195.224 273.431C188.448 272.683 181.715 272.903 174.982 273.475C165.741 274.267 156.72 276.116 148.052 279.46L148.006 279.478C146.027 280.252 145.984 280.269 146.027 282.496C146.156 288.842 146.326 295.146 146.498 301.489L146.511 301.99C146.511 302.046 146.508 302.103 146.503 302.161C146.498 302.221 146.49 302.283 146.483 302.346C146.43 302.805 146.371 303.316 146.995 303.662C147.717 303.341 148.433 303.001 149.15 302.66L149.154 302.658C150.007 302.252 150.864 301.844 151.748 301.462C162.441 297.018 173.662 295.874 185.103 296.71C188.008 296.93 190.824 297.678 193.464 298.91C199.053 301.462 201.781 305.951 202.397 311.935C202.617 314.091 202.441 314.224 200.329 313.915C189.9 312.375 179.471 312.507 169.086 314.047C161.913 315.104 154.96 316.996 148.624 320.648C140.571 325.269 135.378 332.045 133.794 341.33C133.773 341.462 133.757 341.597 133.74 341.733C133.652 342.459 133.56 343.211 132.782 343.619V351.539C133.486 352.067 133.618 352.859 133.75 353.652C135.422 363.817 141.099 370.901 150.252 375.39C156.676 378.558 163.585 379.746 170.626 379.922C175.466 380.054 180.263 379.438 184.883 377.766C192.32 375.126 197.777 370.109 202.221 363.773C202.335 363.611 202.437 363.439 202.541 363.264C202.917 362.629 203.317 361.952 204.421 361.572C204.421 361.99 204.416 362.376 204.411 362.74C204.401 363.411 204.393 364.01 204.421 364.609C204.492 366.13 204.577 367.646 204.662 369.159C204.788 371.409 204.914 373.655 204.993 375.918C205.037 377.018 205.389 377.59 206.534 377.458C206.768 377.429 207.003 377.438 207.238 377.448C207.355 377.453 207.472 377.458 207.59 377.458H234.74C234.794 377.458 234.848 377.459 234.901 377.46C235.004 377.463 235.107 377.467 235.211 377.472L235.216 377.472C235.849 377.5 236.483 377.528 237.117 377.106C236.988 375.946 236.827 374.775 236.666 373.599C236.497 372.367 236.328 371.127 236.193 369.889ZM166.577 348.239C167.898 352.419 171.066 354.708 175.114 355.676C191.66 359.724 201.957 345.995 202.485 333.541C202.529 332.573 202.221 332.133 201.165 332.089C199.106 332.002 197.059 331.903 195.011 331.805L194.993 331.804L194.971 331.803L194.953 331.802L194.937 331.801C192.895 331.703 190.853 331.605 188.8 331.517C186.159 331.385 183.519 331.693 180.923 332.045C177.403 332.485 174.014 333.409 171.066 335.478C166.929 338.338 165.081 343.53 166.577 348.239Z" fill="#311C23"/>
<path d="M251.761 30.5437L253.388 32.1703V32.1703L251.761 30.5437ZM399.239 30.5438L400.866 28.9172V28.9172L399.239 30.5438ZM30.5438 251.761L28.9172 250.134V250.134L30.5438 251.761ZM30.5437 399.239L28.9171 400.866H28.9171L30.5437 399.239ZM251.761 620.456L253.388 618.83V618.83L251.761 620.456ZM399.239 620.456L400.866 622.083V622.083L399.239 620.456ZM620.456 399.239L618.83 397.612V397.612L620.456 399.239ZM620.456 251.761L618.83 253.388V253.388L620.456 251.761ZM379.56 292.741L377.485 291.749L377.478 291.762L377.472 291.775L379.56 292.741ZM194.953 331.802L194.842 334.1H194.842L194.953 331.802ZM253.388 32.1703C293.214 -7.65633 357.786 -7.65626 397.613 32.1703L400.866 28.9172C359.242 -12.7061 291.758 -12.7062 250.134 28.9171L253.388 32.1703ZM32.1703 253.387L253.388 32.1703L250.134 28.9171L28.9172 250.134L32.1703 253.387ZM32.1703 397.612C-7.65633 357.786 -7.65627 293.214 32.1703 253.387L28.9172 250.134C-12.7061 291.758 -12.7062 359.242 28.9171 400.866L32.1703 397.612ZM253.388 618.83L32.1703 397.612L28.9171 400.866L250.134 622.083L253.388 618.83ZM397.612 618.83C357.786 658.656 293.214 658.656 253.388 618.83L250.134 622.083C291.758 663.706 359.242 663.706 400.866 622.083L397.612 618.83ZM618.83 397.612L397.612 618.83L400.866 622.083L622.083 400.866L618.83 397.612ZM618.83 253.388C658.656 293.214 658.656 357.786 618.83 397.612L622.083 400.866C663.706 359.242 663.706 291.758 622.083 250.134L618.83 253.388ZM397.613 32.1703L618.83 253.388L622.083 250.134L400.866 28.9172L397.613 32.1703ZM448.692 358.201C448.691 359.275 448.689 360.349 448.688 361.424L453.289 361.429C453.29 360.354 453.291 359.28 453.292 358.206L448.692 358.201ZM381.616 293.777C381.633 293.741 381.641 293.723 381.648 293.707L377.472 291.775C377.454 291.815 377.433 291.861 377.424 291.882L381.616 293.777ZM381.636 293.733L381.679 293.643L377.528 291.659L377.485 291.749L381.636 293.733ZM194.842 334.1C194.85 334.1 194.857 334.1 194.86 334.1C194.863 334.101 194.862 334.101 194.861 334.1L195.082 329.505C195.074 329.505 195.067 329.504 195.065 329.504C195.061 329.504 195.062 329.504 195.064 329.504L194.842 334.1ZM333.445 300.697C333.445 300.694 333.446 300.691 333.446 300.688C333.446 300.685 333.446 300.683 333.446 300.681L328.867 300.239C328.867 300.242 328.866 300.245 328.866 300.248C328.866 300.25 328.866 300.252 328.866 300.254L333.445 300.697ZM194.883 334.102C194.89 334.102 194.897 334.102 194.899 334.102C194.903 334.102 194.902 334.102 194.9 334.102L195.121 329.507C195.114 329.507 195.108 329.506 195.105 329.506C195.102 329.506 195.103 329.506 195.104 329.506L194.883 334.102ZM194.826 334.099C194.826 334.099 194.825 334.099 194.828 334.099C194.831 334.099 194.836 334.099 194.842 334.1L195.064 329.504C195.064 329.504 195.065 329.504 195.061 329.504C195.059 329.504 195.054 329.504 195.047 329.503L194.826 334.099ZM333.413 301.213C333.417 301.153 333.42 301.096 333.423 301.039L328.831 300.769C328.827 300.832 328.823 300.894 328.82 300.953L333.413 301.213ZM236.193 369.889L231.617 370.365L231.618 370.377L231.619 370.388L236.193 369.889ZM235.312 347.007L239.913 347.033L239.913 347.02V347.007H235.312ZM236.666 373.599L232.108 374.223L232.108 374.223L236.666 373.599ZM237.117 377.106L239.669 380.934L241.998 379.381L241.689 376.598L237.117 377.106ZM235.216 377.472L235.42 372.876L235.407 372.875L235.394 372.875L235.216 377.472ZM207.238 377.448L207.046 382.045L207.047 382.045L207.238 377.448ZM206.534 377.458L207.061 382.028L207.082 382.026L207.104 382.023L206.534 377.458ZM204.993 375.918L200.395 376.078L200.396 376.09L200.396 376.102L204.993 375.918ZM204.662 369.159L200.069 369.417V369.417L204.662 369.159ZM204.421 364.609L209.017 364.395L209.017 364.39L204.421 364.609ZM204.411 362.74L199.81 362.675V362.675L204.411 362.74ZM204.421 361.572H209.022V355.126L202.926 357.222L204.421 361.572ZM202.541 363.264L206.499 365.608L206.5 365.608L202.541 363.264ZM202.221 363.773L198.462 361.12L198.455 361.131L202.221 363.773ZM184.883 377.766L183.344 373.43L183.331 373.435L183.318 373.44L184.883 377.766ZM170.626 379.922L170.751 375.323L170.741 375.323L170.626 379.922ZM150.252 375.39L152.287 371.263L152.277 371.259L150.252 375.39ZM133.75 353.652L138.29 352.905L138.288 352.895L133.75 353.652ZM132.782 351.539H128.181V353.84L130.022 355.22L132.782 351.539ZM132.782 343.619L130.647 339.543L128.181 340.835V343.619H132.782ZM133.74 341.733L129.173 341.177V341.177L133.74 341.733ZM133.794 341.33L129.259 340.557L129.254 340.585L129.25 340.613L133.794 341.33ZM148.624 320.648L150.913 324.639L150.921 324.634L148.624 320.648ZM169.086 314.047L169.756 318.599L169.761 318.598L169.086 314.047ZM200.329 313.915L199.657 318.467L199.665 318.468L200.329 313.915ZM202.397 311.935L206.974 311.468L206.974 311.464L202.397 311.935ZM193.464 298.91L191.519 303.079L191.536 303.087L191.553 303.095L193.464 298.91ZM185.103 296.71L185.451 292.122L185.439 292.121L185.103 296.71ZM151.748 301.462L149.982 297.214L149.952 297.226L149.922 297.239L151.748 301.462ZM149.15 302.66L151.126 306.815L151.137 306.81L151.147 306.805L149.15 302.66ZM146.995 303.662L144.761 307.684L146.767 308.799L148.864 307.867L146.995 303.662ZM146.483 302.346L151.054 302.873L151.054 302.873L146.483 302.346ZM146.503 302.161L151.086 302.563L151.086 302.562L146.503 302.161ZM146.511 301.99H151.112V301.928L151.11 301.866L146.511 301.99ZM146.498 301.489L141.899 301.614V301.614L146.498 301.489ZM146.027 282.496L141.427 282.586L141.428 282.589L146.027 282.496ZM148.006 279.478L146.33 275.193L146.33 275.193L148.006 279.478ZM148.052 279.46L146.396 275.168L146.386 275.171L146.376 275.175L148.052 279.46ZM174.982 273.475L174.593 268.891L174.589 268.891L174.982 273.475ZM195.224 273.431L195.738 268.859L195.729 268.858L195.224 273.431ZM217.447 280.252L219.803 276.301L219.802 276.3L217.447 280.252ZM234.608 305.907L230.08 306.719L230.083 306.738L230.087 306.758L234.608 305.907ZM175.114 355.676L176.208 351.207L176.196 351.204L176.184 351.201L175.114 355.676ZM166.577 348.239L170.965 346.854L170.962 346.846L166.577 348.239ZM202.485 333.541L197.889 333.333L197.889 333.347L202.485 333.541ZM201.165 332.089L200.969 336.686L200.974 336.686L201.165 332.089ZM194.993 331.804L194.772 336.399L194.782 336.4L194.993 331.804ZM194.971 331.803L195.192 327.207L195.182 327.207L194.971 331.803ZM188.8 331.517L188.57 336.112L188.587 336.113L188.604 336.114L188.8 331.517ZM180.923 332.045L181.494 336.611L181.517 336.608L181.541 336.604L180.923 332.045ZM171.066 335.478L173.683 339.262L173.695 339.253L173.708 339.244L171.066 335.478ZM326.886 302.42L325.018 306.624L325.046 306.637L325.074 306.649L326.886 302.42ZM330.494 304.136L328.399 308.232L332.591 310.376L334.638 306.136L330.494 304.136ZM302.199 299.736L301.155 295.255L301.147 295.257L301.14 295.259L302.199 299.736ZM282.617 321.694L287.175 322.324L287.176 322.316L282.617 321.694ZM284.29 337.448L288.491 335.572L288.489 335.569L284.29 337.448ZM306.16 353.641L305.42 358.182L305.431 358.184L305.442 358.186L306.16 353.641ZM330.45 350.561L332.113 354.851L332.118 354.849L330.45 350.561ZM331.536 350.12L329.774 345.87L329.763 345.875L331.536 350.12ZM332.739 349.637L333.924 345.191L332.502 344.812L331.123 345.329L332.739 349.637ZM333.298 350.341L337.896 350.174L337.896 350.173L333.298 350.341ZM333.311 350.517L337.91 350.385L337.902 350.124L337.865 349.865L333.311 350.517ZM333.519 358.091L338.119 357.986L338.118 357.976L338.118 357.967L333.519 358.091ZM333.519 358.105L328.92 358.21L328.92 358.217L333.519 358.105ZM333.971 373.443L338.569 373.308L338.569 373.296L338.569 373.285L333.971 373.443ZM332.079 376.039L333.384 380.451L333.399 380.447L333.413 380.442L332.079 376.039ZM315.313 379.384L315.835 383.955L315.844 383.954L315.313 379.384ZM283.498 376.832L282.167 381.236L282.172 381.237L283.498 376.832ZM254.675 356.722L250.898 359.349L250.903 359.355L254.675 356.722ZM246.182 333.179L241.608 333.674L241.609 333.686L241.61 333.697L246.182 333.179ZM248.734 308.229L244.38 306.742L244.377 306.751L244.374 306.759L248.734 308.229ZM277.601 278.261L275.844 274.009L275.844 274.009L277.601 278.261ZM310.912 273.289L311.234 268.699L311.229 268.699L310.912 273.289ZM330.89 277.689L332.676 273.449L332.674 273.449L330.89 277.689ZM333.072 281.096L328.495 280.626L328.495 280.628L333.072 281.096ZM333.047 281.342L337.623 281.815L337.623 281.81L333.047 281.342ZM331.155 300.476L326.576 300.035L326.572 300.079L326.568 300.123L331.155 300.476ZM331.117 301.083L326.524 300.82L326.523 300.824L331.117 301.083ZM378.239 293.795H373.639V298.813L378.638 298.378L378.239 293.795ZM379.52 292.83L375.331 290.926L375.328 290.933L375.325 290.94L379.52 292.83ZM381.408 375.25L386.007 375.34L386.008 375.295V375.25H381.408ZM382.42 322.046L386.945 322.878L386.947 322.864L386.95 322.85L382.42 322.046ZM387.612 308.932L383.925 306.181L383.917 306.192L387.612 308.932ZM405.038 302.816L404.065 307.312L404.072 307.314L404.08 307.315L405.038 302.816ZM414.059 311.617L409.735 313.189L409.737 313.193L414.059 311.617ZM415.741 374.807L411.141 374.916L411.141 374.917L415.741 374.807ZM415.731 376.039L420.319 376.379L420.32 376.367L415.731 376.039ZM417.315 377.491L417.697 382.076L417.735 382.073L417.773 382.069L417.315 377.491ZM418.195 377.482L418.042 382.08L418.043 382.08L418.195 377.482ZM449.747 377.491L449.977 372.896L449.862 372.891H449.747V377.491ZM450.979 376.215L455.574 375.986L455.571 375.936L455.568 375.887L450.979 376.215ZM450.969 374.983L455.568 375.093L455.568 375.092L450.969 374.983ZM450.988 361.436L455.589 361.441V361.436H450.988ZM450.979 335.599H446.378V335.607L446.378 335.615L450.979 335.599ZM451.595 324.29L456.15 324.933L456.152 324.924L456.153 324.915L451.595 324.29ZM455.467 311.485L451.45 309.242L451.442 309.256L451.435 309.269L455.467 311.485ZM464.752 303.388L463.406 298.988L463.393 298.992L464.752 303.388ZM484.29 313.905L488.766 312.839L488.764 312.83L488.761 312.821L484.29 313.905ZM520.244 377.204L516.955 373.987L516.955 373.987L520.244 377.204ZM520.496 357.08H515.895V357.083L520.496 357.08ZM520.506 322.09L525.107 322.101V322.09H520.506ZM520.11 307.876L515.515 308.101L515.515 308.116L515.516 308.131L520.11 307.876ZM517.954 294.631L513.524 295.874L513.527 295.885L513.53 295.895L517.954 294.631ZM495.643 274.037L496.513 269.519L496.504 269.517L496.495 269.516L495.643 274.037ZM477.293 273.509L476.611 268.959L476.606 268.96L477.293 273.509ZM453.883 285.126L457.169 288.346L457.174 288.341L457.18 288.335L453.883 285.126ZM449.516 290.489L453.214 293.226L453.214 293.226L449.516 290.489ZM448.162 292.299L445.368 295.953L449.025 298.75L451.819 295.091L448.162 292.299ZM447.057 290.693L451.256 288.813L451.25 288.8L451.244 288.786L447.057 290.693ZM446.842 290.23L442.727 292.288L442.727 292.288L446.842 290.23ZM429.637 275.181L428.124 279.526L428.13 279.528L429.637 275.181ZM405.434 274.037L404.508 269.53L404.505 269.531L405.434 274.037ZM379.603 292.651L375.548 290.478L375.517 290.536L375.487 290.595L379.603 292.651ZM331.527 350.124L329.754 345.879L329.748 345.881L331.527 350.124ZM450.992 358.203L455.593 358.208V358.208L450.992 358.203ZM450.988 361.426L446.388 361.421V361.426H450.988ZM379.56 292.741L375.383 290.814L375.377 290.826L375.372 290.838L379.56 292.741ZM194.953 331.802L194.724 336.397L194.733 336.397L194.743 336.398L194.953 331.802ZM330.49 304.134L332.586 300.038L332.567 300.028L332.548 300.019L330.49 304.134ZM331.157 300.46L326.577 300.018L326.577 300.019L331.157 300.46ZM447.056 290.69L442.857 292.57L442.863 292.584L442.869 292.598L447.056 290.69ZM330.487 304.133L332.545 300.018L332.545 300.017L330.487 304.133ZM234.901 377.46L235.018 372.861L235.016 372.861L234.901 377.46ZM149.154 302.658L147.177 298.504L147.167 298.509L147.156 298.514L149.154 302.658ZM194.937 331.801L195.166 327.206L195.158 327.206L194.937 331.801ZM195.011 331.805L195.232 327.209L195.222 327.209L195.011 331.805ZM235.211 377.472L235.006 382.068L235.019 382.069L235.032 382.069L235.211 377.472ZM331.52 350.127L333.281 354.377L333.282 354.377L331.52 350.127ZM331.524 350.125L333.286 354.375L333.295 354.372L333.303 354.368L331.524 350.125ZM333.52 358.113L328.92 358.226L328.921 358.237L333.52 358.113ZM331.127 300.904L326.534 300.634L326.534 300.641L331.127 300.904ZM518.162 377.492L518.147 382.093H518.147L518.162 377.492ZM520.509 375.26L525.11 375.226L525.11 375.213L520.509 375.26ZM520.509 375.25L515.908 375.284L515.909 375.297L520.509 375.25ZM520.496 357.045H525.097V357.041L520.496 357.045ZM240.769 369.413C240.002 362.05 239.869 354.59 239.913 347.033L230.712 346.98C230.668 354.65 230.798 362.503 231.617 370.365L240.769 369.413ZM241.689 376.598C241.553 375.369 241.384 374.14 241.224 372.974L232.108 374.223C232.271 375.41 232.423 376.522 232.544 377.614L241.689 376.598ZM235.011 382.068C235.536 382.092 237.635 382.29 239.669 380.934L234.565 373.278C234.727 373.17 234.909 373.078 235.1 373.01C235.288 372.944 235.448 372.912 235.558 372.898C235.662 372.884 235.718 372.885 235.691 372.885C235.652 372.885 235.596 372.884 235.42 372.876L235.011 382.068ZM207.59 382.059H234.74V372.857H207.59V382.059ZM207.047 382.045C207.149 382.049 207.361 382.059 207.59 382.059V372.857C207.593 372.857 207.585 372.857 207.557 372.856C207.526 372.855 207.491 372.854 207.429 372.851L207.047 382.045ZM207.104 382.023C207.038 382.031 206.985 382.035 206.949 382.037C206.912 382.039 206.89 382.039 206.885 382.039C206.881 382.039 206.889 382.039 206.918 382.04C206.931 382.04 206.948 382.041 206.97 382.042C206.992 382.043 207.016 382.044 207.046 382.045L207.429 372.851C207.258 372.844 206.64 372.808 205.963 372.893L207.104 382.023ZM200.396 376.102C200.426 376.851 200.554 378.69 201.924 380.22C203.574 382.061 205.759 382.178 207.061 382.028L206.006 372.888C206.164 372.869 207.601 372.766 208.778 374.08C209.26 374.618 209.452 375.148 209.526 375.414C209.596 375.669 209.593 375.809 209.59 375.734L200.396 376.102ZM200.069 369.417C200.195 371.674 200.319 373.873 200.395 376.078L209.591 375.757C209.51 373.438 209.381 371.143 209.256 368.901L200.069 369.417ZM199.826 364.823C199.898 366.369 199.984 367.907 200.069 369.417L209.256 368.901C209.17 367.385 209.087 365.891 209.017 364.395L199.826 364.823ZM199.81 362.675C199.801 363.318 199.789 364.062 199.826 364.828L209.017 364.39C208.996 363.958 209.001 363.504 209.011 362.805L199.81 362.675ZM199.821 361.572C199.821 361.953 199.816 362.308 199.81 362.675L209.011 362.805C209.016 362.444 209.022 362.027 209.022 361.572H199.821ZM206.5 365.608C206.604 365.431 206.63 365.391 206.645 365.368C206.649 365.362 206.607 365.425 206.522 365.514C206.431 365.608 206.318 365.704 206.189 365.786C206.062 365.867 205.963 365.907 205.917 365.923L202.926 357.222C200.167 358.17 199.049 360.131 198.582 360.92L206.5 365.608ZM205.98 366.425C206.218 366.088 206.412 365.756 206.499 365.608L198.582 360.92C198.526 361.014 198.498 361.061 198.473 361.101C198.451 361.137 198.45 361.138 198.462 361.12L205.98 366.425ZM186.423 382.102C195.013 379.052 201.173 373.279 205.988 366.414L198.455 361.131C194.381 366.939 189.627 371.2 183.344 373.43L186.423 382.102ZM170.5 384.521C175.816 384.666 181.2 383.992 186.449 382.092L183.318 373.44C179.326 374.884 175.117 375.442 170.751 375.323L170.5 384.521ZM148.217 379.516C155.421 383.068 163.04 384.335 170.511 384.522L170.741 375.323C164.13 375.158 157.932 374.048 152.287 371.263L148.217 379.516ZM129.21 354.398C131.143 366.145 137.844 374.429 148.226 379.52L152.277 371.259C144.354 367.373 139.702 361.489 138.29 352.905L129.21 354.398ZM130.022 355.22C129.8 355.054 129.606 354.851 129.452 354.632C129.302 354.42 129.219 354.235 129.178 354.126C129.14 354.024 129.133 353.977 129.145 354.034C129.16 354.102 129.176 354.191 129.212 354.408L138.288 352.895C138.206 352.405 137.938 349.655 135.542 347.859L130.022 355.22ZM128.181 343.619V351.539H137.383V343.619H128.181ZM129.173 341.177C129.162 341.274 129.155 341.33 129.148 341.38C129.141 341.426 129.138 341.441 129.139 341.438C129.14 341.435 129.146 341.4 129.161 341.344C129.177 341.287 129.203 341.201 129.245 341.094C129.333 340.873 129.49 340.568 129.757 340.258C130.03 339.939 130.343 339.702 130.647 339.543L134.917 347.694C138.113 346.02 138.264 342.644 138.307 342.289L129.173 341.177ZM129.25 340.613C129.214 340.839 129.188 341.056 129.173 341.177L138.307 342.289C138.326 342.138 138.333 342.085 138.338 342.048L129.25 340.613ZM146.334 316.658C137.214 321.891 131.097 329.783 129.259 340.557L138.329 342.104C139.659 334.307 143.928 328.647 150.913 324.639L146.334 316.658ZM168.415 309.496C160.899 310.603 153.333 312.624 146.326 316.662L150.921 324.634C156.588 321.368 162.927 319.605 169.756 318.599L168.415 309.496ZM201.001 309.364C190.089 307.753 179.205 307.896 168.411 309.497L169.761 318.598C179.737 317.119 189.711 316.998 199.657 318.467L201.001 309.364ZM197.82 312.402C197.878 312.972 197.865 313.034 197.871 312.923C197.874 312.878 197.919 311.596 199.084 310.499C200.239 309.413 201.508 309.439 201.533 309.439C201.63 309.438 201.562 309.446 200.993 309.363L199.665 318.468C200.151 318.539 200.898 318.646 201.615 318.64C202.26 318.634 203.956 318.55 205.391 317.2C206.836 315.839 207.016 314.139 207.056 313.472C207.1 312.74 207.026 311.977 206.974 311.468L197.82 312.402ZM191.553 303.095C195.439 304.87 197.345 307.791 197.821 312.406L206.974 311.464C206.217 304.111 202.667 298.055 195.375 294.725L191.553 303.095ZM184.756 301.297C187.095 301.474 189.371 302.077 191.519 303.079L195.41 294.741C192.277 293.279 188.92 292.385 185.451 292.122L184.756 301.297ZM153.514 305.711C163.384 301.608 173.851 300.5 184.768 301.298L185.439 292.121C173.473 291.247 161.498 292.428 149.982 297.214L153.514 305.711ZM148.864 307.867C149.649 307.517 150.419 307.151 151.126 306.815L147.173 298.506C146.448 298.851 145.786 299.165 145.127 299.458L148.864 307.867ZM141.913 301.818C141.905 301.885 141.728 302.978 142.02 304.153C142.402 305.696 143.402 306.929 144.761 307.684L149.23 299.641C149.526 299.805 149.913 300.087 150.265 300.536C150.624 300.994 150.839 301.489 150.951 301.939C151.055 302.358 151.056 302.685 151.052 302.823C151.049 302.94 151.036 303.022 151.054 302.873L141.913 301.818ZM141.92 301.76C141.921 301.748 141.921 301.745 141.92 301.756C141.919 301.761 141.919 301.768 141.917 301.779C141.916 301.79 141.915 301.802 141.913 301.818L151.054 302.873C151.06 302.822 151.074 302.697 151.086 302.563L141.92 301.76ZM141.911 301.99C141.911 301.865 141.918 301.778 141.92 301.76L151.086 302.562C151.098 302.427 151.112 302.226 151.112 301.99H141.911ZM141.899 301.614L141.912 302.115L151.11 301.866L151.097 301.365L141.899 301.614ZM141.428 282.589C141.557 288.953 141.727 295.273 141.899 301.614L151.097 301.365C150.925 295.019 150.755 288.731 150.627 282.403L141.428 282.589ZM146.33 275.193C145.925 275.351 145.289 275.594 144.747 275.874C144.145 276.184 143.174 276.773 142.429 277.892C141.69 279.001 141.516 280.118 141.457 280.79C141.402 281.414 141.418 282.102 141.427 282.586L150.627 282.406C150.622 282.124 150.619 281.931 150.619 281.777C150.62 281.621 150.624 281.579 150.623 281.598C150.621 281.616 150.573 282.263 150.087 282.993C149.595 283.732 149.003 284.032 148.964 284.052C148.941 284.064 148.971 284.047 149.112 283.989C149.251 283.931 149.423 283.864 149.682 283.762L146.33 275.193ZM146.376 275.175L146.33 275.193L149.682 283.762L149.727 283.745L146.376 275.175ZM174.589 268.891C164.995 269.714 155.538 271.641 146.396 275.168L149.707 283.752C157.903 280.591 166.487 278.821 175.375 278.059L174.589 268.891ZM195.729 268.858C188.534 268.064 181.47 268.307 174.593 268.891L175.372 278.06C181.96 277.5 188.361 277.302 194.72 278.004L195.729 268.858ZM219.802 276.3C212.174 271.753 203.941 269.781 195.738 268.859L194.711 278.003C202.173 278.842 208.99 280.567 215.091 284.204L219.802 276.3ZM239.137 305.095C236.953 292.912 230.904 282.922 219.803 276.301L215.09 284.203C223.615 289.288 228.304 296.811 230.08 306.719L239.137 305.095ZM239.913 315.104C239.913 311.913 239.779 308.504 239.13 305.055L230.087 306.758C230.582 309.382 230.712 312.134 230.712 315.104H239.913ZM239.913 347.007V315.104H230.712V347.007H239.913ZM176.184 351.201C173.3 350.512 171.684 349.132 170.965 346.854L162.19 349.624C164.111 355.707 168.831 358.904 174.044 360.15L176.184 351.201ZM197.889 333.347C197.671 338.482 195.41 343.87 191.634 347.465C188.013 350.912 182.895 352.843 176.208 351.207L174.021 360.145C183.879 362.557 192.182 359.648 197.979 354.129C203.62 348.758 206.771 341.055 207.082 333.736L197.889 333.347ZM200.974 336.686C200.959 336.685 200.686 336.677 200.287 336.536C199.844 336.379 199.258 336.06 198.75 335.47C198.251 334.889 198.039 334.292 197.953 333.901C197.911 333.713 197.897 333.566 197.892 333.478C197.887 333.39 197.889 333.337 197.889 333.333L207.081 333.75C207.117 332.968 207.119 331.088 205.725 329.468C204.271 327.778 202.325 327.533 201.356 327.493L200.974 336.686ZM181.541 336.604C184.127 336.254 186.395 336.003 188.57 336.112L189.029 326.922C185.924 326.767 182.912 327.133 180.305 327.486L181.541 336.604ZM173.708 339.244C175.808 337.771 178.371 337.001 181.494 336.611L180.352 327.48C176.434 327.97 172.221 329.048 168.424 331.711L173.708 339.244ZM170.962 346.846C170.102 344.138 171.144 341.017 173.683 339.262L168.449 331.694C162.715 335.659 160.061 342.923 162.193 349.632L170.962 346.846ZM303.244 304.216C310.633 302.493 317.883 303.453 325.018 306.624L328.755 298.216C320.047 294.346 310.751 293.018 301.155 295.255L303.244 304.216ZM287.176 322.316C288.428 313.147 294.422 306.305 303.259 304.213L301.14 295.259C288.415 298.271 279.799 308.327 278.059 321.071L287.176 322.316ZM288.489 335.569C286.725 331.624 286.493 327.258 287.175 322.324L278.06 321.064C277.246 326.955 277.366 333.238 280.09 339.326L288.489 335.569ZM306.9 349.1C298.218 347.685 291.997 343.425 288.491 335.572L280.089 339.323C285.031 350.392 294.124 356.341 305.42 358.182L306.9 349.1ZM328.788 346.271C321.526 349.086 314.26 350.262 306.877 349.097L305.442 358.186C314.782 359.66 323.709 358.108 332.113 354.851L328.788 346.271ZM331.123 345.329C330.656 345.504 330.175 345.704 329.774 345.87L333.297 354.37C333.731 354.191 334.061 354.054 334.354 353.945L331.123 345.329ZM337.896 350.173C337.895 350.154 337.888 349.802 337.825 349.41C337.755 348.972 337.598 348.334 337.209 347.654C336.331 346.124 334.936 345.461 333.924 345.191L331.553 354.082C331.081 353.956 329.96 353.511 329.225 352.229C328.642 351.211 328.689 350.182 328.701 350.508L337.896 350.173ZM337.865 349.865C337.884 349.998 337.891 350.1 337.894 350.145C337.897 350.184 337.897 350.213 337.896 350.174L328.701 350.507C328.701 350.522 328.708 350.829 328.756 351.168L337.865 349.865ZM338.118 357.967C338.05 355.446 337.982 352.918 337.91 350.385L328.712 350.649C328.784 353.172 328.852 355.692 328.92 358.214L338.118 357.967ZM338.119 358L338.119 357.986L328.92 358.196L328.92 358.21L338.119 358ZM333.413 380.442C334.515 380.108 336.138 379.445 337.302 377.849C338.478 376.238 338.604 374.479 338.569 373.308L329.372 373.578C329.382 373.903 329.288 373.222 329.869 372.425C330.44 371.644 331.094 371.531 330.744 371.636L333.413 380.442ZM315.844 383.954C321.736 383.269 327.589 382.166 333.384 380.451L330.773 371.628C325.567 373.169 320.243 374.179 314.781 374.814L315.844 383.954ZM282.172 381.237C293.235 384.565 304.522 385.248 315.835 383.955L314.79 374.813C304.542 375.984 294.53 375.346 284.823 372.426L282.172 381.237ZM250.903 359.355C258.723 370.556 269.566 377.427 282.167 381.236L284.829 372.428C273.843 369.107 264.883 363.305 258.447 354.088L250.903 359.355ZM241.61 333.697C242.648 342.851 245.459 351.531 250.898 359.349L258.451 354.094C254.033 347.743 251.651 340.581 250.753 332.661L241.61 333.697ZM244.374 306.759C241.414 315.544 240.619 324.537 241.608 333.674L250.756 332.684C249.897 324.748 250.597 317.106 253.094 309.698L244.374 306.759ZM275.844 274.009C260.8 280.226 249.779 290.93 244.38 306.742L253.088 309.715C257.546 296.66 266.503 287.826 279.358 282.513L275.844 274.009ZM311.229 268.699C299.167 267.867 287.26 269.292 275.844 274.009L279.358 282.513C289.24 278.43 299.687 277.126 310.596 277.879L311.229 268.699ZM332.674 273.449C325.692 270.511 318.473 269.207 311.234 268.699L310.591 277.878C317.17 278.339 323.328 279.499 329.106 281.93L332.674 273.449ZM337.648 281.567C337.698 281.086 337.782 280.339 337.775 279.668C337.767 278.915 337.655 277.675 336.869 276.433C336.116 275.243 335.09 274.609 334.489 274.281C333.906 273.964 333.211 273.674 332.676 273.449L329.105 281.93C329.414 282.06 329.636 282.154 329.817 282.235C330.001 282.316 330.074 282.354 330.089 282.363C330.162 282.402 329.576 282.115 329.095 281.355C328.58 280.543 328.574 279.817 328.574 279.763C328.573 279.735 328.575 279.775 328.561 279.945C328.548 280.113 328.527 280.318 328.495 280.626L337.648 281.567ZM337.623 281.81L337.649 281.565L328.495 280.628L328.47 280.873L337.623 281.81ZM334.638 306.136C335.597 304.15 335.659 302.249 335.71 301.341L326.523 300.824C326.465 301.859 326.412 302.01 326.351 302.136L334.638 306.136ZM378.638 298.378C379.937 298.265 381.261 297.784 382.333 296.751C383.25 295.867 383.664 294.831 383.715 294.719L375.325 290.94C375.19 291.241 375.404 290.649 375.947 290.126C376.256 289.828 376.616 289.591 376.999 289.43C377.365 289.275 377.668 289.226 377.841 289.211L378.638 298.378ZM373.639 277.953V293.795H382.84V277.953H373.639ZM375.819 280.09C376.519 280.09 376.656 280.1 376.656 280.1C376.619 280.095 376.362 280.064 376.007 279.928C375.614 279.778 375.101 279.5 374.626 279.008C374.155 278.52 373.902 278.008 373.772 277.639C373.655 277.304 373.63 277.068 373.628 277.049C373.625 277.022 373.631 277.065 373.635 277.246C373.638 277.422 373.639 277.637 373.639 277.953H382.84C382.84 277.458 382.847 276.7 382.775 276.045C382.706 275.423 382.489 273.905 381.247 272.619C379.983 271.308 378.446 271.049 377.781 270.967C377.099 270.883 376.329 270.888 375.819 270.888V280.09ZM348.668 280.09H375.819V270.888H348.668V280.09ZM350.761 277.909C350.761 277.601 350.762 277.393 350.766 277.23C350.77 277.061 350.776 277.034 350.77 277.082C350.765 277.122 350.732 277.385 350.592 277.745C350.437 278.145 350.152 278.659 349.656 279.13C349.165 279.595 348.656 279.84 348.297 279.964C347.97 280.077 347.742 280.1 347.73 280.101C347.709 280.103 347.759 280.097 347.945 280.093C348.126 280.09 348.347 280.09 348.668 280.09V270.888C348.16 270.888 347.399 270.882 346.743 270.952C346.128 271.019 344.614 271.23 343.324 272.453C341.994 273.715 341.725 275.259 341.64 275.938C341.554 276.625 341.559 277.401 341.559 277.909H350.761ZM350.761 375.247V277.909H341.559V375.247H350.761ZM348.492 372.935C347.831 372.935 347.706 372.925 347.712 372.926C347.749 372.93 347.995 372.96 348.336 373.085C348.711 373.223 349.214 373.481 349.691 373.949C350.662 374.903 350.766 375.965 350.768 375.982C350.771 376.006 350.761 375.901 350.761 375.247H341.559C341.559 375.715 341.554 376.457 341.637 377.121C341.719 377.777 341.977 379.271 343.245 380.516C344.498 381.746 345.979 381.985 346.613 382.061C347.271 382.14 348.009 382.136 348.492 382.136V372.935ZM379.075 372.935H348.492V382.136H379.075V372.935ZM376.808 375.159C376.802 375.454 376.798 375.648 376.792 375.806C376.785 375.968 376.779 375.995 376.785 375.952C376.789 375.918 376.822 375.67 376.951 375.329C377.093 374.953 377.358 374.451 377.832 373.977C378.307 373.503 378.813 373.237 379.199 373.093C379.548 372.962 379.802 372.931 379.844 372.926C379.857 372.925 379.739 372.935 379.075 372.935V382.136C379.556 382.136 380.295 382.14 380.953 382.061C381.595 381.983 383.083 381.737 384.333 380.489C385.576 379.248 385.827 377.77 385.908 377.153C385.991 376.518 385.999 375.789 386.007 375.34L376.808 375.159ZM377.895 321.213C377.135 325.347 376.807 329.456 376.807 333.575H386.008C386.008 329.949 386.297 326.401 386.945 322.878L377.895 321.213ZM383.917 306.192C380.433 310.89 378.795 316.144 377.89 321.241L386.95 322.85C387.717 318.53 388.983 314.807 391.308 311.673L383.917 306.192ZM406.011 298.319C398.782 296.755 389.643 298.518 383.925 306.181L391.299 311.684C394.382 307.553 399.5 306.324 404.065 307.312L406.011 298.319ZM418.383 310.044C416.494 304.849 412.875 299.781 405.996 298.316L404.08 307.315C406.706 307.875 408.456 309.671 409.735 313.189L418.383 310.044ZM420.332 323.278C420.332 319.125 420.019 314.532 418.381 310.04L409.737 313.193C410.827 316.182 411.13 319.509 411.13 323.278H420.332ZM420.332 374.191V323.278H411.13V374.191H420.332ZM420.34 374.698C420.335 374.484 420.332 374.333 420.332 374.191H411.13C411.13 374.46 411.137 374.72 411.141 374.916L420.34 374.698ZM420.32 376.367C420.368 375.701 420.349 375.072 420.34 374.697L411.141 374.917C411.152 375.364 411.153 375.556 411.142 375.711L420.32 376.367ZM416.933 372.906C416.943 372.906 416.994 372.902 417.078 372.904C417.161 372.907 417.298 372.916 417.474 372.95C417.825 373.017 418.417 373.199 419.011 373.686C420.39 374.817 420.328 376.26 420.319 376.379L411.143 375.699C411.046 377.007 411.248 379.22 413.177 380.801C414.873 382.192 416.824 382.149 417.697 382.076L416.933 372.906ZM418.349 372.883C418.106 372.875 417.506 372.849 416.858 372.913L417.773 382.069C417.722 382.074 417.707 382.072 417.755 382.072C417.779 382.072 417.811 382.073 417.86 382.074C417.911 382.075 417.965 382.077 418.042 382.08L418.349 372.883ZM418.635 372.891C418.578 372.891 418.508 372.889 418.348 372.883L418.043 382.08C418.176 382.084 418.399 382.092 418.635 382.092V372.891ZM446.384 376.445C446.376 376.283 446.344 375.117 447.372 374.033C448.45 372.896 449.702 372.883 449.977 372.896L449.517 382.086C450.671 382.144 452.561 381.932 454.047 380.366C455.482 378.854 455.626 377.028 455.574 375.986L446.384 376.445ZM446.37 374.873C446.361 375.248 446.342 375.878 446.39 376.543L455.568 375.887C455.557 375.731 455.558 375.539 455.568 375.093L446.37 374.873ZM446.378 374.367C446.378 374.508 446.375 374.658 446.37 374.874L455.568 375.092C455.573 374.897 455.579 374.636 455.579 374.367H446.378ZM446.388 361.431C446.383 365.738 446.378 370.05 446.378 374.367H455.579C455.579 370.056 455.584 365.749 455.589 361.441L446.388 361.431ZM447.039 323.647C446.464 327.719 446.378 331.768 446.378 335.599H455.579C455.579 331.861 455.669 328.341 456.15 324.933L447.039 323.647ZM451.435 309.269C448.859 313.958 447.693 318.885 447.037 323.664L456.153 324.915C456.729 320.718 457.675 317.02 459.499 313.7L451.435 309.269ZM463.393 298.992C457.659 300.766 453.941 304.78 451.45 309.242L459.485 313.727C461.218 310.621 463.309 308.65 466.112 307.783L463.393 298.992ZM488.761 312.821C487.303 306.806 484.173 302.126 479.308 299.634C474.532 297.187 468.942 297.295 463.406 298.988L466.098 307.787C470.199 306.532 473.146 306.816 475.113 307.823C476.993 308.786 478.813 310.838 479.819 314.989L488.761 312.821ZM489.859 322.266C489.859 319.108 489.513 315.977 488.766 312.839L479.815 314.97C480.388 317.377 480.658 319.791 480.658 322.266H489.859ZM486.314 372.891C486.763 372.891 488.028 373.044 489.024 374.238C489.872 375.256 489.859 376.271 489.859 376.347H480.658C480.658 377.128 480.777 378.715 481.955 380.129C483.28 381.719 485.074 382.092 486.314 382.092V372.891ZM515.895 357.083C515.9 362.917 515.905 368.75 515.905 374.587H525.107C525.107 368.745 525.102 362.909 525.097 357.076L515.895 357.083ZM515.516 308.131C515.776 312.8 515.905 317.423 515.905 322.09H525.107C525.107 317.251 524.972 312.458 524.703 307.621L515.516 308.131ZM513.53 295.895C514.66 299.849 515.311 303.944 515.515 308.101L524.705 307.651C524.469 302.832 523.712 298.037 522.377 293.367L513.53 295.895ZM494.774 278.554C499.904 279.542 503.854 281.499 506.844 284.263C509.835 287.029 512.107 290.826 513.524 295.874L522.383 293.387C520.588 286.994 517.536 281.617 513.09 277.507C508.643 273.395 503.043 270.776 496.513 269.519L494.774 278.554ZM477.976 278.058C483.536 277.224 489.126 277.49 494.792 278.558L496.495 269.516C490.015 268.295 483.372 267.945 476.611 268.959L477.976 278.058ZM457.18 288.335C462.852 282.509 469.807 279.294 477.981 278.058L476.606 268.96C466.738 270.452 457.852 274.454 450.587 281.917L457.18 288.335ZM453.214 293.226C454.614 291.334 455.805 289.738 457.169 288.346L450.597 281.906C448.714 283.827 447.156 285.944 445.818 287.752L453.214 293.226ZM451.819 295.091C452.3 294.461 452.768 293.828 453.214 293.226L445.818 287.752C445.366 288.363 444.938 288.94 444.506 289.506L451.819 295.091ZM442.858 292.573C443.076 293.06 443.735 294.705 445.368 295.953L450.957 288.644C451.066 288.727 451.16 288.818 451.239 288.908C451.316 288.995 451.365 289.068 451.389 289.106C451.411 289.141 451.411 289.147 451.387 289.097C451.358 289.039 451.326 288.968 451.256 288.813L442.858 292.573ZM428.13 279.528C434.761 281.826 439.578 285.99 442.727 292.288L450.957 288.173C446.714 279.685 440.001 273.904 431.143 270.834L428.13 279.528ZM406.36 278.543C413.881 276.998 421.11 277.084 428.124 279.526L431.149 270.836C422.234 267.733 413.268 267.731 404.508 269.53L406.36 278.543ZM383.659 294.824C388.516 285.759 396.2 280.638 406.363 278.543L404.505 269.531C392.049 272.099 381.868 278.685 375.548 290.478L383.659 294.824ZM194.75 336.398L194.772 336.399L195.214 327.208L195.192 327.207L194.75 336.398ZM376.807 333.575V375.25H386.008V333.575H376.807ZM449.747 372.891H418.635V382.092H449.747V372.891ZM489.859 376.347V322.266H480.658V376.347H489.859ZM517.69 372.891H486.314V382.092H517.69V372.891ZM329.763 345.875L329.754 345.879L333.3 354.369L333.309 354.366L329.763 345.875ZM446.388 361.426V361.436H455.589V361.426H446.388ZM383.738 294.668C383.739 294.665 383.732 294.68 383.719 294.706L375.487 290.595C375.445 290.68 375.409 290.756 375.383 290.814L383.738 294.668ZM446.378 335.615C446.404 343.147 446.399 350.667 446.391 358.198L455.593 358.208C455.601 350.676 455.605 343.138 455.579 335.583L446.378 335.615ZM383.708 294.733L383.749 294.644L375.372 290.838L375.331 290.926L383.708 294.733ZM446.391 358.198L446.388 361.421L455.589 361.431L455.593 358.208L446.391 358.198ZM194.743 336.398L194.761 336.399L195.182 327.207L195.163 327.206L194.743 336.398ZM515.895 357.07V357.08H525.097V357.07H515.895ZM328.395 308.23L328.399 308.232L332.59 300.04L332.586 300.038L328.395 308.23ZM335.735 300.916L335.736 300.901L326.577 300.019L326.576 300.035L335.735 300.916ZM335.736 300.902C336.352 294.527 336.966 288.17 337.623 281.815L328.47 280.868C327.809 287.259 327.192 293.648 326.577 300.018L335.736 300.902ZM442.727 292.288C442.751 292.335 442.78 292.399 442.857 292.57L451.255 288.811C451.193 288.671 451.084 288.426 450.957 288.173L442.727 292.288ZM442.869 292.598L442.871 292.601L451.244 288.786L451.243 288.783L442.869 292.598ZM241.224 372.974C241.054 371.732 240.893 370.555 240.766 369.39L231.619 370.388C231.762 371.699 231.941 373.002 232.108 374.223L241.224 372.974ZM325.074 306.649C326.159 307.114 327.182 307.624 328.43 308.248L332.545 300.017C331.333 299.412 330.072 298.78 328.698 298.191L325.074 306.649ZM328.43 308.248L328.433 308.249L332.548 300.019L332.545 300.018L328.43 308.248ZM235.016 372.861C234.932 372.859 234.84 372.857 234.74 372.857V382.059C234.748 382.059 234.763 382.059 234.786 382.059L235.016 372.861ZM149.922 297.239C148.95 297.66 148.018 298.103 147.177 298.504L151.13 306.813C151.995 306.401 152.779 306.029 153.574 305.685L149.922 297.239ZM147.156 298.514L147.152 298.516L151.147 306.805L151.151 306.803L147.156 298.514ZM188.604 336.114C190.642 336.201 192.672 336.298 194.716 336.397L195.158 327.206C193.118 327.108 191.063 327.009 188.995 326.921L188.604 336.114ZM194.708 336.396L194.724 336.397L195.182 327.207L195.166 327.206L194.708 336.396ZM194.782 336.4L194.8 336.401L195.222 327.209L195.205 327.208L194.782 336.4ZM194.79 336.4C196.835 336.498 198.896 336.598 200.969 336.686L201.361 327.493C199.317 327.406 197.282 327.308 195.232 327.209L194.79 336.4ZM234.785 382.059C234.837 382.061 234.896 382.063 235.006 382.068L235.415 372.876C235.319 372.871 235.172 372.865 235.018 372.861L234.785 382.059ZM235.032 382.069L235.037 382.069L235.394 372.875L235.389 372.875L235.032 382.069ZM332.118 354.849C332.532 354.688 332.937 354.52 333.281 354.377L329.759 345.877C329.401 346.025 329.087 346.155 328.783 346.273L332.118 354.849ZM333.282 354.377L333.286 354.375L329.762 345.875L329.758 345.877L333.282 354.377ZM333.303 354.368L333.306 354.367L329.748 345.881L329.745 345.882L333.303 354.368ZM328.92 358.217L328.92 358.226L338.119 358.001L338.119 357.993L328.92 358.217ZM328.921 358.237C329.058 363.342 329.195 368.461 329.373 373.602L338.569 373.285C338.393 368.184 338.256 363.1 338.119 357.99L328.921 358.237ZM335.72 301.174C335.728 301.041 335.735 300.927 335.743 300.828L326.568 300.123C326.554 300.303 326.543 300.478 326.534 300.634L335.72 301.174ZM517.69 382.092C517.848 382.092 517.999 382.092 518.147 382.093L518.178 372.892C518.03 372.891 517.865 372.891 517.69 372.891V382.092ZM518.147 382.093C518.635 382.095 519.389 382.104 520.036 382.034C520.636 381.97 522.227 381.756 523.532 380.421L516.955 373.987C517.464 373.466 518.012 373.187 518.412 373.043C518.772 372.914 519.031 372.888 519.056 372.885C519.091 372.882 519.055 372.887 518.877 372.89C518.704 372.893 518.492 372.893 518.177 372.892L518.147 382.093ZM523.532 380.421C524.789 379.137 524.997 377.615 525.059 377.016C525.125 376.386 525.113 375.664 525.11 375.226L515.909 375.294C515.911 375.583 515.912 375.773 515.91 375.927C515.908 376.085 515.903 376.107 515.908 376.06C515.912 376.022 515.938 375.764 516.063 375.409C516.201 375.016 516.466 374.486 516.955 373.987L523.532 380.421ZM525.097 357.07V357.065H515.895V357.07H525.097ZM525.097 357.065V357.06H515.895V357.065H525.097ZM326.534 300.641L326.524 300.82L335.71 301.346L335.72 301.167L326.534 300.641ZM525.11 375.213L525.109 375.203L515.909 375.297L515.909 375.307L525.11 375.213ZM525.11 375.217C525.108 375.013 525.107 374.808 525.107 374.587H515.905C515.905 374.846 515.907 375.083 515.908 375.284L525.11 375.217ZM525.097 357.06V357.055H515.895V357.06H525.097ZM525.097 357.055V357.05H515.895V357.055H525.097ZM515.905 322.078C515.876 333.75 515.886 345.401 515.895 357.049L525.097 357.041C525.087 345.39 525.077 333.755 525.107 322.101L515.905 322.078ZM515.895 357.045V357.05H525.097V357.045H515.895Z" fill="#160609" mask="url(#path-3-inside-2_194_16725)"/>
<defs>
<linearGradient id="paint0_linear_194_16725" x1="325.5" y1="0" x2="325.5" y2="651" gradientUnits="userSpaceOnUse">
<stop stop-color="#FFF4A4"/>
<stop offset="1" stop-color="#DDA913"/>
</linearGradient>
</defs>
</svg>
